<?xml version="1.0" standalone="no"?>
<!DOCTYPE svg PUBLIC "-//W3C//DTD SVG 20010904//EN"
 "http://www.w3.org/TR/2001/REC-SVG-20010904/DTD/svg10.dtd">
<svg version="1.0" xmlns="http://www.w3.org/2000/svg"
 width="256.000000pt" height="256.000000pt" viewBox="0 0 256.000000 256.000000"
 preserveAspectRatio="xMidYMid meet">

<g transform="translate(0.000000,256.000000) scale(0.100000,-0.100000)"
fill="#000000" stroke="none">
<path d="M1135 2553 c-81 -10 -199 -38 -275 -65 -428 -151 -738 -506 -836
-958 -26 -119 -26 -381 0 -500 111 -513 493 -895 1006 -1006 119 -26 381 -26
500 0 283 61 526 203 713 416 297 338 393 811 252 1237 -67 200 -160 351 -314
504 -197 198 -419 313 -689 360 -105 17 -271 23 -357 12z m425 -111 c223 -60
386 -150 543 -301 173 -166 275 -342 339 -581 29 -110 36 -364 14 -485 -48
-255 -152 -453 -335 -636 -183 -183 -381 -287 -636 -335 -121 -22 -375 -15
-485 14 -239 64 -415 166 -581 339 -155 162 -251 339 -307 566 -24 102 -24
412 0 514 55 224 151 403 303 562 190 200 401 310 695 365 14 2 104 3 200 1
135 -2 192 -8 250 -23z"/>
<path d="M1125 2119 c-106 -23 -157 -43 -168 -66 -7 -16 -7 -27 3 -38 17 -20
35 -19 127 7 76 21 160 25 368 15 45 -2 50 0 53 21 5 35 -13 49 -82 61 -73 13
-243 13 -301 0z"/>
<path d="M742 1908 c-9 -9 -12 -72 -12 -222 l0 -210 61 -62 62 -62 -17 -329
c-22 -447 -22 -454 10 -493 66 -77 154 -80 223 -6 34 37 36 79 16 477 l-18
351 62 62 61 62 -2 213 c-3 191 -5 215 -20 225 -13 8 -23 8 -35 0 -16 -10 -18
-33 -21 -205 l-2 -193 -65 -67 c-36 -37 -65 -69 -65 -71 0 -1 9 -176 20 -387
18 -345 18 -387 5 -408 -19 -28 -65 -31 -89 -5 -15 18 -15 44 4 406 12 239 16
394 11 404 -5 10 -35 42 -65 72 l-56 54 0 191 c0 196 -4 215 -40 215 -9 0 -21
-5 -28 -12z"/>
<path d="M866 1904 c-13 -13 -16 -45 -16 -195 0 -168 1 -180 21 -200 18 -18
23 -19 42 -6 21 14 22 22 25 200 2 158 0 187 -13 201 -21 20 -39 20 -59 0z"/>
<path d="M995 1904 c-13 -14 -15 -43 -13 -201 3 -178 4 -186 25 -200 19 -13
24 -12 42 6 20 20 21 32 21 200 0 150 -3 182 -16 195 -20 20 -38 20 -59 0z"/>
<path d="M1535 1907 c-78 -31 -110 -74 -144 -198 -28 -99 -29 -236 -2 -295 10
-22 36 -56 58 -75 l40 -34 -13 -270 c-19 -393 -18 -463 5 -501 37 -61 121 -80
191 -44 77 39 80 63 56 550 l-13 265 40 34 c59 51 77 99 77 205 0 101 -26 214
-66 283 -42 73 -150 111 -229 80z m134 -103 c43 -36 75 -142 75 -254 1 -99
-11 -125 -74 -165 -39 -25 -40 -26 -40 -84 0 -32 7 -202 15 -376 9 -175 13
-326 10 -336 -12 -37 -98 -37 -109 -1 -4 10 1 160 9 332 8 173 15 343 15 377
0 62 0 63 -40 88 -63 40 -75 66 -74 165 0 112 32 218 75 254 41 35 97 35 138
0z"/>
<path d="M1867 1833 c-15 -15 -5 -52 23 -88 220 -277 205 -694 -34 -973 -50
-58 -54 -72 -30 -96 23 -24 34 -20 83 31 140 145 221 356 221 573 0 175 -46
328 -143 472 -50 75 -62 88 -86 88 -15 0 -31 -3 -34 -7z"/>
<path d="M596 1785 c-28 -28 -86 -133 -112 -201 -96 -255 -62 -557 87 -775 87
-127 132 -162 167 -127 20 20 14 34 -34 90 -101 118 -165 264 -186 425 -20
159 17 327 108 484 24 42 44 78 44 82 0 11 -31 37 -45 37 -7 0 -20 -7 -29 -15z"/>
<path d="M1154 499 c-19 -21 -18 -33 4 -52 26 -24 223 -25 246 -1 18 17 20 32
7 53 -14 22 -237 22 -257 0z"/>
</g>
</svg>
