<svg xmlns="http://www.w3.org/2000/svg" xmlns:xlink="http://www.w3.org/1999/xlink" width="1024" zoomAndPan="magnify" viewBox="0 0 768 576" height="768" preserveAspectRatio="xMidYMid meet" version="1.0"><defs><clipPath id="d8829a5446"><path d="M 165.625 0 L 768 0 L 768 464.25 L 165.625 464.25 Z M 165.625 0 " clip-rule="nonzero"/></clipPath></defs><path fill="#ffffff" d="M 182.550781 457.347656 C 176.910156 452.984375 177.023438 447.492188 182.832031 443.53125 C 188.832031 439.429688 196.390625 439.511719 201.847656 443.734375 C 207.488281 448.09375 207.375 453.585938 201.566406 457.550781 C 195.5625 461.648438 188.007812 461.566406 182.550781 457.347656 Z M 223.714844 439.550781 C 208.648438 433.609375 208.894531 416.335938 224.121094 410.613281 C 235.601562 406.300781 249.542969 409.207031 255.144531 417.078125 C 265.808594 432.0625 244.097656 447.585938 223.714844 439.550781 Z M 282.167969 412.410156 C 262.4375 404.742188 254.570312 387.273438 264.671875 373.542969 C 275.21875 359.207031 299.261719 353.488281 318.15625 360.828125 C 337.890625 368.496094 345.757812 385.964844 335.65625 399.695312 C 325.105469 414.03125 301.066406 419.75 282.167969 412.410156 Z M 580.296875 385.828125 C 554.542969 381.765625 538.09375 376.808594 518.402344 367.164062 L 507.714844 361.933594 L 489.410156 368.496094 C 479.34375 372.105469 464.808594 376.015625 457.113281 377.183594 C 385.089844 388.101562 314.5625 356.347656 296.167969 304.722656 C 293.664062 297.695312 291.625 294.535156 289.820312 294.882812 C 288.359375 295.167969 279.96875 295.738281 271.171875 296.152344 C 242.039062 297.523438 218.300781 290.710938 197.804688 275.097656 C 185.601562 265.800781 180.296875 259.203125 175.421875 247.25 C 168.859375 231.171875 172.890625 208.566406 184.851562 194.332031 C 192.425781 185.316406 209.441406 173.792969 221.859375 169.265625 L 233.367188 165.070312 L 235.863281 155.628906 C 245.316406 119.898438 289.871094 93.160156 339.960938 93.160156 L 351.574219 93.160156 L 352.84375 84.328125 C 357.824219 49.722656 393.796875 18.074219 442.113281 5.789062 C 453.15625 2.984375 459.167969 2.488281 482.101562 2.488281 C 505.03125 2.488281 511.046875 2.984375 522.089844 5.789062 C 558.59375 15.070312 587.648438 34.570312 602.316406 59.628906 C 605.460938 64.996094 609.039062 69.058594 610.484375 68.890625 C 611.898438 68.726562 618.457031 67.167969 625.054688 65.429688 C 641.386719 61.121094 670.371094 60.105469 688.5 63.203125 C 723.527344 69.1875 754.722656 87.015625 769.445312 109.464844 C 774.058594 116.496094 775.683594 117.792969 779.003906 117.09375 C 787.929688 115.214844 815.738281 114.726562 826.988281 116.257812 C 846.277344 118.875 866.496094 126.714844 881.996094 137.589844 C 926.632812 168.898438 927.726562 217.769531 884.519531 250.289062 C 861.628906 267.519531 832.878906 275.683594 799.730469 274.371094 L 782.464844 273.6875 L 780.066406 284.496094 C 766.699219 344.710938 695.847656 388.328125 612.058594 387.929688 C 601.613281 387.878906 587.316406 386.933594 580.296875 385.824219 Z M 580.296875 385.828125 " fill-opacity="1" fill-rule="nonzero"/><g clip-path="url(#d8829a5446)"><path stroke-linecap="butt" transform="matrix(0.82795, 0, 0, 0.828722, 121.434612, -20.718026)" fill="none" stroke-linejoin="miter" d="M 73.816265 576.871122 C 67.003504 571.606048 67.140325 564.978749 74.15596 560.199175 C 81.402775 555.249911 90.532064 555.348897 97.12308 560.444281 C 103.935841 565.704641 103.79902 572.33194 96.783386 577.116228 C 89.531852 582.060778 80.407281 581.961793 73.816265 576.871122 Z M 123.534325 555.396032 C 105.337081 548.226671 105.634314 527.383202 124.024995 520.477801 C 137.891134 515.274004 154.7296 518.780911 161.495181 528.278783 C 174.375263 546.360092 148.152738 565.091875 123.534325 555.396032 Z M 194.134158 522.64605 C 170.303648 513.393284 160.801639 492.314136 173.002331 475.745888 C 185.740874 458.447034 214.780033 451.546347 237.600896 460.403171 C 261.436124 469.655937 270.938133 490.735085 258.73744 507.303333 C 245.99418 524.602187 216.959739 531.502874 194.134158 522.64605 Z M 554.21501 490.57011 C 523.109377 485.667982 503.241969 479.686444 479.458638 468.048605 L 466.550248 461.737115 L 444.4418 469.655937 C 432.283569 474.011289 414.72797 478.729586 405.433552 480.138948 C 318.443461 493.313416 233.260355 454.99669 211.043394 392.701962 C 208.019169 384.222224 205.556384 380.408935 203.376678 380.828444 C 201.612154 381.172535 191.477936 381.860719 180.853048 382.360358 C 145.666363 384.014827 116.995206 375.794336 92.239972 356.95414 C 77.501007 345.73581 71.093991 337.774566 65.205954 323.350999 C 57.27975 303.949886 62.148704 276.672375 76.595155 259.496074 C 85.743315 248.617122 106.294831 234.712049 121.293285 229.249005 L 135.19245 224.186615 L 138.207239 212.793882 C 149.624747 169.678728 203.438012 137.414245 263.936653 137.414245 L 277.963204 137.414245 L 279.496547 126.756831 C 285.511969 84.999189 328.959835 46.80973 387.316514 31.985508 C 400.65424 28.601155 407.915209 28.00253 435.614462 28.00253 C 463.308997 28.00253 470.574684 28.601155 483.91241 31.985508 C 528.001921 43.184984 563.094246 66.715196 580.810256 96.952839 C 584.608229 103.429303 588.929898 108.331431 590.67555 108.128747 C 592.383458 107.930776 600.304944 106.050056 608.27361 103.952511 C 627.999479 98.753428 663.006881 97.527896 684.90302 101.265768 C 727.209135 108.486979 764.886913 129.999777 782.668975 157.088745 C 788.240908 165.573197 790.203587 167.138106 794.213869 166.294375 C 804.99445 164.027141 838.581741 163.437943 852.169519 165.285668 C 875.466898 168.443769 899.887156 177.903933 918.608095 191.026551 C 972.520438 228.805928 973.841472 287.777579 921.65591 327.018167 C 894.008554 347.809787 859.284231 357.661178 819.247464 356.077413 L 798.393998 355.252536 L 795.497159 368.295023 C 779.352236 440.954923 693.777538 493.586804 592.576895 493.106018 C 579.96102 493.044741 562.693218 491.904054 554.21501 490.565396 Z M 554.21501 490.57011 " stroke="#000000" stroke-width="6" stroke-opacity="1" stroke-miterlimit="4"/></g></svg>