<svg xmlns="http://www.w3.org/2000/svg" xmlns:xlink="http://www.w3.org/1999/xlink" width="700" zoomAndPan="magnify" viewBox="0 0 525 127.500001" height="170" preserveAspectRatio="xMidYMid meet" version="1.0"><defs><clipPath id="920c8581cd"><path d="M 144.113281 18 L 371 18 L 371 106 L 144.113281 106 Z M 144.113281 18 " clip-rule="nonzero"/></clipPath><clipPath id="7a067ce4e7"><path d="M 154 33 L 380.933594 33 L 380.933594 120 L 154 120 Z M 154 33 " clip-rule="nonzero"/></clipPath><clipPath id="dcbdfd7ee6"><path d="M 144.113281 18 L 230 18 L 230 52 L 144.113281 52 Z M 144.113281 18 " clip-rule="nonzero"/></clipPath><clipPath id="3bf02b2df6"><path d="M 244 67 L 380.933594 67 L 380.933594 120 L 244 120 Z M 244 67 " clip-rule="nonzero"/></clipPath><clipPath id="3d413171a7"><path d="M 144.113281 18 L 297 18 L 297 77 L 144.113281 77 Z M 144.113281 18 " clip-rule="nonzero"/></clipPath><clipPath id="26fb058261"><path d="M 144.113281 18 L 230 18 L 230 52 L 144.113281 52 Z M 144.113281 18 " clip-rule="nonzero"/></clipPath><clipPath id="130c18628c"><path d="M 333 115 L 343 115 L 343 123.246094 L 333 123.246094 Z M 333 115 " clip-rule="nonzero"/></clipPath></defs><g clip-path="url(#920c8581cd)"><path fill="#000000" d="M 144.515625 18.359375 C 229.648438 53.601562 370.488281 105.253906 370.488281 105.253906 C 370.488281 105.253906 231.328125 49.238281 144.515625 18.359375 " fill-opacity="1" fill-rule="nonzero"/></g><path fill="#000000" d="M 149.507812 24.902344 C 234.640625 60.144531 375.480469 111.796875 375.480469 111.796875 C 375.480469 111.796875 236.316406 55.777344 149.507812 24.902344 " fill-opacity="1" fill-rule="nonzero"/><g clip-path="url(#7a067ce4e7)"><path fill="#000000" d="M 154.5 33.085938 C 239.632812 68.328125 380.46875 119.980469 380.46875 119.980469 C 380.46875 119.980469 241.3125 63.960938 154.5 33.085938 " fill-opacity="1" fill-rule="nonzero"/></g><g clip-path="url(#dcbdfd7ee6)"><path fill="#000000" d="M 144.515625 18.359375 C 160.3125 25.683594 181.609375 33.878906 198.988281 40.25 C 207.675781 43.433594 215.386719 46.167969 220.9375 48.105469 C 226.496094 50.019531 229.878906 51.1875 229.9375 51.207031 C 229.960938 51.214844 229.960938 51.214844 229.960938 51.214844 C 229.960938 51.214844 229.960938 51.214844 229.9375 51.207031 C 229.882812 51.183594 226.585938 49.78125 221.175781 47.484375 C 215.753906 45.207031 208.207031 42.066406 199.621094 38.609375 C 182.449219 31.695312 161.152344 23.507812 144.515625 18.359375 " fill-opacity="1" fill-rule="nonzero"/></g><path fill="#000000" d="M 149.507812 24.902344 C 164.011719 31.726562 183.609375 39.269531 199.609375 45.109375 C 207.609375 48.035156 214.71875 50.527344 219.835938 52.300781 C 224.960938 54.050781 228.085938 55.117188 228.148438 55.136719 C 228.171875 55.152344 228.171875 55.152344 228.171875 55.152344 C 228.171875 55.152344 228.171875 55.152344 228.148438 55.136719 C 228.089844 55.113281 225.050781 53.8125 220.074219 51.679688 C 215.085938 49.5625 208.140625 46.667969 200.246094 43.46875 C 184.449219 37.085938 164.847656 29.550781 149.507812 24.902344 " fill-opacity="1" fill-rule="nonzero"/><path fill="#000000" d="M 241.039062 60.09375 C 241.035156 57.757812 241.03125 60.09375 241.03125 60.09375 C 241.03125 60.09375 241.035156 62.433594 241.039062 60.09375 " fill-opacity="1" fill-rule="nonzero"/><g clip-path="url(#3bf02b2df6)"><path fill="#000000" d="M 380.46875 119.980469 C 329.417969 97.847656 244.082031 67.539062 244.082031 67.539062 C 244.082031 67.539062 327.742188 102.210938 380.46875 119.980469 " fill-opacity="1" fill-rule="nonzero"/></g><path fill="#000000" d="M 227.253906 61.070312 L 227.242188 61.058594 C 214.292969 54.875 196.914062 48.144531 182.410156 42.855469 L 182.492188 42.890625 L 182.480469 42.886719 L 182.429688 42.859375 L 182.402344 42.847656 C 166.789062 37.144531 154.5 33.089844 154.5 33.089844 C 154.5 33.089844 166.339844 38.316406 181.75 44.542969 L 181.671875 44.503906 L 181.683594 44.511719 L 181.707031 44.523438 L 181.761719 44.546875 C 196.070312 50.324219 213.484375 56.984375 227.242188 61.0625 L 227.253906 61.070312 " fill-opacity="1" fill-rule="nonzero"/><path fill="#ffffff" d="M 296.394531 89.160156 C 296.394531 89.160156 289.378906 93.367188 287.332031 97.296875 C 287.332031 97.296875 283.359375 91.800781 280.789062 91.222656 C 280.789062 91.222656 283.722656 84.183594 277.828125 78.730469 C 277.828125 78.730469 284.660156 75.304688 282.242188 67.632812 C 282.242188 67.632812 287.523438 67.089844 290.273438 60.613281 C 290.273438 60.613281 289.914062 68.921875 297.527344 69.207031 C 297.527344 69.207031 293.824219 74.871094 297.964844 79.113281 C 297.964844 79.113281 294.882812 83.25 296.394531 89.160156 Z M 290.023438 51.777344 C 289.894531 51.878906 289.769531 51.988281 289.644531 52.097656 L 289.605469 52.085938 Z M 308.390625 83.714844 C 310.160156 81.929688 310.765625 79.226562 310.476562 76.730469 C 310.1875 74.230469 309.105469 71.898438 307.878906 69.703125 L 307.730469 68.917969 C 308.882812 67.632812 309.617188 65.96875 309.675781 64.242188 C 309.777344 61.261719 307.878906 58.3125 305.121094 57.171875 L 305.113281 57.460938 L 304.605469 57.289062 C 304.140625 54.855469 302.738281 52.585938 300.652344 51.234375 C 297.519531 49.207031 293.125 49.4375 290.160156 51.671875 L 290.316406 51.558594 C 286.761719 48.140625 280.738281 47.570312 276.664062 50.375 C 273.539062 52.535156 271.875 56.46875 272.136719 60.230469 L 272.101562 61.417969 L 270.726562 61.667969 C 268.757812 62.167969 266.949219 63.335938 265.800781 65.015625 C 263.9375 67.738281 263.941406 71.574219 265.699219 74.347656 L 265.910156 73.9375 L 265.886719 74.214844 C 263.367188 76.082031 261.746094 79.214844 261.980469 82.363281 C 262.253906 85.984375 264.941406 89.222656 268.335938 90.40625 L 268.335938 90.519531 L 268.316406 90.492188 C 267.097656 92.820312 267.210938 95.789062 268.609375 98.011719 C 269.757812 99.835938 271.738281 101.101562 273.863281 101.441406 L 273.867188 101.453125 L 273.84375 101.441406 C 273.148438 103.191406 273.148438 105.230469 273.945312 106.945312 C 275.089844 109.414062 277.816406 111.054688 280.535156 110.914062 C 283.117188 110.78125 285.539062 109.046875 286.535156 106.671875 C 286.535156 106.667969 286.535156 106.667969 286.535156 106.667969 C 288.246094 108.257812 290.75 109.042969 293.023438 108.425781 C 296.300781 107.539062 298.527344 103.894531 297.925781 100.570312 L 297.941406 100.542969 C 299.097656 101.308594 300.65625 101.53125 302.011719 101.136719 C 304 100.5625 305.535156 98.914062 306.433594 97.050781 C 308.199219 93.390625 307.648438 88.726562 305.078125 85.578125 L 305.101562 85.375 C 306.328125 85.183594 307.515625 84.597656 308.390625 83.714844 " fill-opacity="1" fill-rule="nonzero"/><path fill="#000000" d="M 297.964844 79.113281 C 297.78125 77.964844 297.5625 76.914062 297.375 75.875 C 297.183594 74.839844 297.054688 73.8125 297.042969 72.84375 C 297.03125 71.875 297.140625 70.964844 297.273438 70.296875 C 297.402344 69.632812 297.527344 69.207031 297.527344 69.207031 C 297.527344 69.207031 297.167969 69.457031 296.683594 70.003906 C 296.207031 70.550781 295.617188 71.433594 295.304688 72.597656 C 294.992188 73.753906 294.996094 75.179688 295.480469 76.421875 C 295.941406 77.664062 296.867188 78.703125 297.964844 79.113281 " fill-opacity="1" fill-rule="nonzero"/><path fill="#000000" d="M 296.394531 89.160156 C 296.613281 87.746094 296.773438 86.335938 297.003906 84.929688 C 297.253906 83.535156 297.550781 82.140625 297.984375 80.910156 C 298.398438 79.675781 298.914062 78.601562 299.347656 77.839844 C 299.558594 77.457031 299.75 77.152344 299.890625 76.949219 C 300.023438 76.738281 300.101562 76.617188 300.101562 76.617188 C 300.101562 76.617188 299.980469 76.6875 299.761719 76.808594 C 299.539062 76.929688 299.222656 77.121094 298.859375 77.402344 C 298.121094 77.953125 297.160156 78.875 296.394531 80.164062 C 295.613281 81.441406 295.089844 83.09375 295.039062 84.753906 C 295 86.414062 295.480469 88.054688 296.394531 89.160156 " fill-opacity="1" fill-rule="nonzero"/><path fill="#000000" d="M 298.4375 88.277344 C 296.507812 88.375 294.359375 89.144531 292.464844 90.371094 C 290.578125 91.609375 288.933594 93.257812 287.777344 94.941406 C 286.601562 96.613281 285.878906 98.265625 285.472656 99.46875 C 285.261719 100.070312 285.132812 100.5625 285.054688 100.902344 C 284.972656 101.242188 284.929688 101.425781 284.929688 101.425781 C 284.929688 101.425781 285.035156 101.269531 285.230469 100.980469 C 285.417969 100.6875 285.691406 100.269531 286.054688 99.769531 C 286.773438 98.761719 287.832031 97.421875 289.140625 96.046875 C 290.433594 94.660156 292.007812 93.28125 293.617188 91.972656 C 295.242188 90.675781 296.917969 89.472656 298.4375 88.277344 " fill-opacity="1" fill-rule="nonzero"/><path fill="#000000" d="M 280.382812 90.894531 C 280.898438 91.832031 281.558594 92.601562 282.273438 93.292969 C 282.984375 93.992188 283.757812 94.609375 284.46875 95.1875 C 285.1875 95.761719 285.84375 96.285156 286.328125 96.667969 C 286.8125 97.050781 287.121094 97.296875 287.121094 97.296875 C 287.121094 97.296875 287.101562 97.199219 287.066406 97.023438 C 287.03125 96.851562 286.96875 96.601562 286.871094 96.296875 C 286.675781 95.6875 286.332031 94.855469 285.773438 94.011719 C 285.214844 93.167969 284.425781 92.335938 283.484375 91.734375 C 282.542969 91.140625 281.449219 90.800781 280.382812 90.894531 " fill-opacity="1" fill-rule="nonzero"/><path fill="#000000" d="M 276.53125 93.175781 C 277.515625 93.414062 278.738281 93.191406 279.769531 92.53125 C 280.804688 91.882812 281.664062 90.851562 282.144531 89.617188 C 282.617188 88.386719 282.695312 87.042969 282.507812 85.820312 C 282.320312 84.585938 281.882812 83.464844 281.339844 82.5 C 280.234375 80.574219 278.820312 79.308594 277.824219 78.453125 C 276.804688 77.605469 276.148438 77.15625 276.148438 77.15625 C 276.148438 77.15625 276.597656 77.816406 277.332031 78.894531 C 278.050781 79.972656 279.058594 81.480469 279.757812 83.257812 C 280.453125 85.027344 280.789062 87.136719 280.273438 88.980469 C 279.75 90.808594 278.417969 92.46875 276.53125 93.175781 " fill-opacity="1" fill-rule="nonzero"/><path fill="#000000" d="M 277.355469 78.910156 C 278.210938 78.921875 279.148438 78.691406 280.023438 78.230469 C 280.902344 77.769531 281.710938 77.082031 282.351562 76.242188 C 282.988281 75.398438 283.46875 74.417969 283.707031 73.386719 C 283.964844 72.363281 283.972656 71.320312 283.828125 70.382812 C 283.539062 68.492188 282.628906 67.050781 281.855469 66.222656 C 281.46875 65.800781 281.113281 65.515625 280.867188 65.328125 C 280.617188 65.15625 280.476562 65.058594 280.476562 65.058594 C 280.476562 65.058594 280.566406 65.199219 280.726562 65.457031 C 280.882812 65.71875 281.09375 66.097656 281.304688 66.585938 C 281.730469 67.550781 282.113281 68.96875 282.078125 70.515625 C 282.066406 72.074219 281.589844 73.679688 280.726562 75.125 C 279.859375 76.574219 278.683594 77.832031 277.355469 78.910156 " fill-opacity="1" fill-rule="nonzero"/><path fill="#000000" d="M 282.242188 67.632812 C 283.503906 67.953125 285.03125 67.660156 286.324219 66.914062 C 287.613281 66.160156 288.675781 65.007812 289.308594 63.820312 C 289.957031 62.636719 290.214844 61.46875 290.28125 60.644531 C 290.320312 60.234375 290.3125 59.902344 290.296875 59.675781 C 290.28125 59.453125 290.273438 59.332031 290.273438 59.332031 C 290.273438 59.332031 290.214844 59.441406 290.109375 59.636719 C 290.011719 59.832031 289.859375 60.117188 289.652344 60.445312 C 289.253906 61.113281 288.640625 61.972656 287.871094 62.816406 C 287.109375 63.675781 286.167969 64.488281 285.214844 65.28125 C 284.246094 66.0625 283.25 66.804688 282.242188 67.632812 " fill-opacity="1" fill-rule="nonzero"/><path fill="#000000" d="M 268.316406 90.492188 C 267.710938 91.019531 267.214844 91.777344 266.910156 92.652344 C 266.613281 93.527344 266.507812 94.519531 266.625 95.503906 C 266.742188 96.484375 267.070312 97.460938 267.589844 98.304688 C 268.101562 99.152344 268.789062 99.847656 269.515625 100.363281 C 270.96875 101.410156 272.535156 101.722656 273.589844 101.726562 C 274.125 101.738281 274.542969 101.679688 274.824219 101.628906 C 275.105469 101.566406 275.257812 101.53125 275.257812 101.53125 C 275.257812 101.53125 275.105469 101.5 274.828125 101.4375 C 274.558594 101.367188 274.167969 101.261719 273.710938 101.082031 C 272.800781 100.734375 271.625 100.054688 270.648438 99.023438 C 269.648438 98.003906 268.933594 96.660156 268.566406 95.164062 C 268.199219 93.664062 268.144531 92.085938 268.316406 90.492188 " fill-opacity="1" fill-rule="nonzero"/><path fill="#000000" d="M 286.683594 106.28125 C 285.457031 108.050781 283.558594 109.390625 281.484375 109.777344 C 279.453125 110.191406 277.261719 109.4375 275.816406 108.128906 C 274.328125 106.84375 273.753906 105 273.679688 103.65625 C 273.628906 102.980469 273.6875 102.421875 273.738281 102.035156 C 273.765625 101.847656 273.792969 101.695312 273.8125 101.597656 C 273.832031 101.496094 273.84375 101.441406 273.84375 101.441406 C 273.84375 101.441406 273.816406 101.488281 273.765625 101.578125 C 273.714844 101.667969 273.640625 101.800781 273.554688 101.984375 C 273.390625 102.339844 273.160156 102.882812 273.023438 103.613281 C 272.882812 104.335938 272.832031 105.25 273.035156 106.269531 C 273.230469 107.285156 273.734375 108.394531 274.550781 109.34375 C 275.359375 110.300781 276.484375 111.089844 277.785156 111.554688 C 279.082031 112.015625 280.59375 112.089844 281.949219 111.695312 C 283.304688 111.3125 284.488281 110.519531 285.316406 109.53125 C 286.148438 108.542969 286.621094 107.363281 286.683594 106.28125 " fill-opacity="1" fill-rule="nonzero"/><path fill="#000000" d="M 284.6875 103.730469 C 284.683594 104.777344 285.085938 105.933594 285.832031 106.925781 C 286.582031 107.914062 287.667969 108.726562 288.910156 109.203125 C 290.15625 109.671875 291.574219 109.824219 292.898438 109.507812 C 294.230469 109.214844 295.375 108.488281 296.207031 107.628906 C 297.910156 105.894531 298.390625 103.746094 298.324219 102.34375 C 298.320312 101.988281 298.265625 101.667969 298.226562 101.394531 C 298.160156 101.125 298.117188 100.894531 298.050781 100.714844 C 297.921875 100.359375 297.847656 100.164062 297.847656 100.164062 C 297.847656 100.164062 297.851562 100.371094 297.863281 100.742188 C 297.867188 100.925781 297.839844 101.15625 297.824219 101.414062 C 297.785156 101.671875 297.753906 101.964844 297.667969 102.277344 C 297.390625 103.527344 296.535156 105.1875 295.035156 106.324219 C 293.5625 107.523438 291.511719 107.902344 289.539062 107.332031 C 288.5625 107.058594 287.617188 106.589844 286.789062 105.980469 C 285.96875 105.367188 285.25 104.613281 284.6875 103.730469 " fill-opacity="1" fill-rule="nonzero"/><path fill="#000000" d="M 296.644531 99.140625 C 296.789062 99.722656 297.128906 100.308594 297.625 100.792969 C 298.117188 101.28125 298.757812 101.644531 299.464844 101.875 C 300.175781 102.113281 300.953125 102.183594 301.746094 102.089844 C 302.546875 101.988281 303.296875 101.714844 303.988281 101.324219 C 305.367188 100.53125 306.410156 99.304688 307.105469 97.992188 C 307.796875 96.667969 308.164062 95.246094 308.242188 93.90625 C 308.429688 91.207031 307.570312 88.933594 306.707031 87.574219 C 306.28125 86.875 305.859375 86.382812 305.5625 86.058594 C 305.25 85.75 305.078125 85.578125 305.078125 85.578125 C 305.078125 85.578125 305.191406 85.785156 305.40625 86.167969 C 305.601562 86.554688 305.871094 87.121094 306.109375 87.851562 C 306.609375 89.292969 306.9375 91.4375 306.5 93.691406 C 306.300781 94.820312 305.890625 95.957031 305.300781 97.003906 C 304.707031 98.042969 303.90625 98.988281 302.949219 99.644531 C 302.476562 99.96875 301.945312 100.230469 301.421875 100.386719 C 300.886719 100.535156 300.308594 100.605469 299.738281 100.5625 C 298.589844 100.488281 297.457031 100.039062 296.644531 99.140625 " fill-opacity="1" fill-rule="nonzero"/><path fill="#000000" d="M 301.511719 84.632812 C 302.222656 85.492188 303.496094 86.070312 304.851562 86.082031 C 306.207031 86.101562 307.640625 85.632812 308.789062 84.6875 C 309.929688 83.746094 310.691406 82.441406 311.085938 81.113281 C 311.488281 79.777344 311.550781 78.425781 311.398438 77.195312 C 311.066406 74.722656 310.015625 72.863281 309.242188 71.621094 C 308.847656 71 308.503906 70.523438 308.261719 70.199219 C 308.015625 69.878906 307.878906 69.703125 307.878906 69.703125 C 307.878906 69.703125 307.957031 69.910156 308.089844 70.289062 C 308.230469 70.667969 308.425781 71.21875 308.648438 71.902344 C 309.082031 73.261719 309.644531 75.199219 309.648438 77.308594 C 309.648438 79.394531 308.988281 81.726562 307.476562 83.214844 C 305.976562 84.664062 303.609375 85.371094 301.511719 84.632812 " fill-opacity="1" fill-rule="nonzero"/><path fill="#000000" d="M 304.644531 70.976562 C 305.542969 70.984375 306.527344 70.695312 307.421875 70.152344 C 308.316406 69.601562 309.109375 68.792969 309.6875 67.828125 C 310.257812 66.859375 310.621094 65.742188 310.679688 64.613281 C 310.75 63.480469 310.519531 62.386719 310.128906 61.460938 C 309.34375 59.578125 307.957031 58.394531 306.902344 57.832031 C 306.375 57.539062 305.917969 57.382812 305.609375 57.292969 C 305.296875 57.214844 305.121094 57.171875 305.121094 57.171875 C 305.121094 57.171875 305.265625 57.277344 305.523438 57.464844 C 305.773438 57.65625 306.125 57.949219 306.5 58.351562 C 307.261719 59.148438 308.101562 60.449219 308.464844 62.019531 C 308.863281 63.582031 308.675781 65.316406 307.945312 66.902344 C 307.21875 68.496094 306.0625 69.882812 304.644531 70.976562 " fill-opacity="1" fill-rule="nonzero"/><path fill="#000000" d="M 289.480469 52.238281 C 290.523438 51.671875 291.648438 51.257812 292.828125 51.011719 C 294.003906 50.773438 295.234375 50.71875 296.433594 50.859375 C 298.839844 51.128906 301.015625 52.347656 302.359375 54.128906 C 303.746094 55.867188 304.332031 57.917969 304.429688 59.398438 C 304.496094 60.144531 304.453125 60.757812 304.410156 61.179688 C 304.351562 61.601562 304.316406 61.835938 304.316406 61.835938 C 304.316406 61.835938 304.417969 61.621094 304.597656 61.226562 C 304.757812 60.824219 304.96875 60.21875 305.089844 59.425781 C 305.355469 57.859375 305.210938 55.429688 303.804688 53.132812 C 303.117188 51.992188 302.117188 50.90625 300.828125 50.148438 C 299.558594 49.367188 298.058594 48.957031 296.582031 48.890625 C 295.101562 48.835938 293.632812 49.140625 292.386719 49.742188 C 291.140625 50.347656 290.121094 51.242188 289.480469 52.238281 " fill-opacity="1" fill-rule="nonzero"/><path fill="#000000" d="M 273.246094 64.253906 C 272.410156 61.441406 272.617188 58.160156 273.929688 55.34375 C 274.566406 53.9375 275.503906 52.679688 276.621094 51.703125 C 277.753906 50.75 279.078125 50.054688 280.449219 49.703125 C 281.8125 49.339844 283.183594 49.246094 284.414062 49.347656 C 285.652344 49.445312 286.746094 49.738281 287.625 50.082031 C 288.078125 50.230469 288.445312 50.445312 288.792969 50.597656 C 289.117188 50.789062 289.40625 50.941406 289.628906 51.085938 C 290.070312 51.394531 290.3125 51.558594 290.3125 51.558594 C 290.3125 51.558594 290.113281 51.339844 289.75 50.9375 C 289.5625 50.742188 289.308594 50.527344 289.011719 50.265625 C 288.699219 50.039062 288.355469 49.738281 287.917969 49.492188 C 287.070312 48.960938 285.953125 48.441406 284.613281 48.132812 C 283.277344 47.820312 281.714844 47.714844 280.078125 47.988281 C 278.4375 48.246094 276.746094 48.976562 275.304688 50.125 C 273.886719 51.292969 272.757812 52.859375 272.109375 54.582031 C 271.4375 56.292969 271.230469 58.140625 271.4375 59.847656 C 271.664062 61.554688 272.304688 63.117188 273.246094 64.253906 " fill-opacity="1" fill-rule="nonzero"/><path fill="#000000" d="M 265.699219 74.347656 C 265.300781 72.628906 265.171875 70.851562 265.402344 69.121094 C 265.648438 67.394531 266.289062 65.769531 267.316406 64.554688 C 268.328125 63.328125 269.609375 62.503906 270.597656 62.046875 C 271.089844 61.804688 271.519531 61.664062 271.8125 61.558594 C 272.113281 61.46875 272.277344 61.417969 272.277344 61.417969 C 272.277344 61.417969 272.105469 61.402344 271.789062 61.371094 C 271.472656 61.359375 271.003906 61.335938 270.421875 61.414062 C 269.265625 61.542969 267.578125 62.023438 266.070312 63.320312 C 265.332031 63.96875 264.644531 64.816406 264.191406 65.804688 C 263.730469 66.785156 263.46875 67.882812 263.433594 68.96875 C 263.371094 71.144531 264.292969 73.257812 265.699219 74.347656 " fill-opacity="1" fill-rule="nonzero"/><path fill="#000000" d="M 269.222656 72.667969 C 267.941406 72.652344 266.519531 73.058594 265.238281 73.859375 C 263.964844 74.664062 262.84375 75.855469 262.070312 77.269531 C 261.304688 78.6875 260.867188 80.332031 260.945312 81.957031 C 260.992188 83.585938 261.535156 85.113281 262.304688 86.34375 C 263.066406 87.578125 264.039062 88.546875 265.027344 89.230469 C 266.015625 89.921875 267.003906 90.347656 267.847656 90.574219 C 268.265625 90.703125 268.660156 90.761719 268.992188 90.820312 C 269.335938 90.847656 269.621094 90.886719 269.859375 90.886719 C 270.328125 90.878906 270.585938 90.875 270.585938 90.875 C 270.585938 90.875 270.339844 90.8125 269.886719 90.699219 C 269.664062 90.640625 269.398438 90.53125 269.089844 90.429688 C 268.792969 90.296875 268.449219 90.167969 268.09375 89.964844 C 266.65625 89.226562 264.871094 87.699219 263.839844 85.496094 C 263.316406 84.40625 262.988281 83.171875 263 81.914062 C 262.980469 80.648438 263.300781 79.359375 263.832031 78.152344 C 264.378906 76.957031 265.152344 75.847656 266.070312 74.914062 C 267 73.988281 268.066406 73.226562 269.222656 72.667969 " fill-opacity="1" fill-rule="nonzero"/><path fill="#000000" d="M 290.871094 58.472656 C 290.273438 59.089844 289.808594 59.949219 289.570312 60.921875 C 289.335938 61.890625 289.328125 62.972656 289.570312 64.011719 C 289.808594 65.054688 290.28125 66.066406 290.960938 66.894531 C 291.628906 67.738281 292.472656 68.378906 293.328125 68.8125 C 295.054688 69.695312 296.78125 69.742188 297.902344 69.542969 C 298.476562 69.449219 298.90625 69.304688 299.195312 69.195312 C 299.480469 69.074219 299.636719 69.003906 299.636719 69.003906 C 299.636719 69.003906 299.46875 69.007812 299.164062 69.007812 C 298.859375 68.996094 298.425781 68.976562 297.902344 68.886719 C 296.863281 68.71875 295.46875 68.242188 294.238281 67.3125 C 292.992188 66.402344 292.019531 65.050781 291.464844 63.476562 C 290.910156 61.898438 290.738281 60.1875 290.871094 58.472656 " fill-opacity="1" fill-rule="nonzero"/><g clip-path="url(#3d413171a7)"><path fill="#000000" d="M 296.667969 76.867188 C 239.617188 52.429688 144.515625 18.359375 144.515625 18.359375 C 144.515625 18.359375 237.941406 56.792969 296.667969 76.867188 " fill-opacity="1" fill-rule="nonzero"/></g><path fill="#000000" d="M 296.765625 81.527344 C 241.578125 57.800781 149.507812 24.902344 149.507812 24.902344 C 149.507812 24.902344 239.902344 62.167969 296.765625 81.527344 " fill-opacity="1" fill-rule="nonzero"/><path fill="#000000" d="M 154.5 33.089844 C 187.316406 47.261719 233.742188 64.742188 264.324219 75.996094 L 264.101562 75.851562 L 264.109375 75.859375 L 264.210938 75.957031 L 264.328125 76.003906 C 269.972656 78.066406 275.074219 79.929688 279.4375 81.527344 L 279.507812 81.554688 L 279.570312 81.550781 L 279.574219 81.550781 L 279.441406 81.527344 C 289.765625 85.253906 296.085938 87.53125 296.085938 87.53125 C 296.085938 87.53125 289.867188 84.992188 279.707031 80.839844 L 279.648438 80.816406 L 279.570312 80.816406 L 279.699219 80.839844 C 275.390625 79.101562 270.355469 77.070312 264.78125 74.824219 L 265 74.96875 L 264.996094 74.960938 L 264.90625 74.871094 L 264.777344 74.816406 C 234.535156 62.683594 188.355469 44.558594 154.5 33.089844 " fill-opacity="1" fill-rule="nonzero"/><path fill="#ffffff" d="M 227.875 65.773438 C 227.875 65.773438 217.414062 72.046875 214.355469 77.902344 C 214.355469 77.902344 208.4375 69.707031 204.601562 68.847656 C 204.601562 68.847656 208.976562 58.351562 200.1875 50.210938 C 200.1875 50.210938 210.375 45.109375 206.769531 33.660156 C 206.769531 33.660156 214.644531 32.851562 218.75 23.191406 C 218.75 23.191406 218.214844 35.582031 229.5625 36.011719 C 229.5625 36.011719 224.042969 44.457031 230.214844 50.789062 C 230.214844 50.789062 225.621094 56.957031 227.875 65.773438 Z M 218.375 10.011719 C 218.179688 10.164062 217.996094 10.328125 217.8125 10.492188 L 217.753906 10.472656 Z M 245.769531 57.648438 C 248.40625 54.984375 249.3125 50.953125 248.878906 47.230469 C 248.449219 43.507812 246.832031 40.023438 245.007812 36.75 L 244.785156 35.578125 C 246.503906 33.664062 247.59375 31.179688 247.6875 28.601562 C 247.839844 24.15625 245.007812 19.757812 240.894531 18.058594 L 240.882812 18.492188 L 240.121094 18.234375 C 239.429688 14.601562 237.339844 11.21875 234.230469 9.203125 C 229.554688 6.179688 223.003906 6.523438 218.578125 9.859375 L 218.808594 9.6875 C 213.511719 4.585938 204.527344 3.738281 198.445312 7.925781 C 193.785156 11.140625 191.300781 17.011719 191.695312 22.621094 L 191.644531 24.394531 L 189.59375 24.769531 C 186.65625 25.511719 183.960938 27.253906 182.242188 29.757812 C 179.464844 33.816406 179.472656 39.542969 182.09375 43.675781 L 182.40625 43.066406 L 182.375 43.480469 C 178.613281 46.265625 176.199219 50.941406 176.550781 55.636719 C 176.953125 61.03125 180.960938 65.863281 186.023438 67.632812 L 186.023438 67.800781 L 186 67.761719 C 184.179688 71.226562 184.351562 75.65625 186.433594 78.972656 C 188.148438 81.699219 191.101562 83.582031 194.273438 84.09375 L 194.277344 84.101562 L 194.242188 84.089844 C 193.203125 86.699219 193.203125 89.738281 194.394531 92.296875 C 196.101562 95.984375 200.171875 98.429688 204.226562 98.21875 C 208.074219 98.023438 211.683594 95.433594 213.171875 91.886719 C 213.171875 91.886719 213.171875 91.882812 213.171875 91.882812 C 215.726562 94.257812 219.460938 95.429688 222.847656 94.507812 C 227.738281 93.183594 231.054688 87.746094 230.15625 82.792969 L 230.179688 82.746094 C 231.910156 83.886719 234.230469 84.222656 236.257812 83.636719 C 239.21875 82.777344 241.511719 80.320312 242.847656 77.542969 C 245.484375 72.082031 244.664062 65.128906 240.828125 60.425781 L 240.859375 60.125 C 242.691406 59.835938 244.460938 58.964844 245.769531 57.648438 " fill-opacity="1" fill-rule="nonzero"/><path fill="#000000" d="M 230.214844 50.789062 C 229.71875 49.253906 229.21875 47.691406 228.871094 46.089844 C 228.515625 44.496094 228.359375 42.867188 228.417969 41.375 C 228.476562 39.882812 228.761719 38.53125 229.039062 37.566406 C 229.179688 37.082031 229.316406 36.695312 229.410156 36.429688 C 229.507812 36.160156 229.5625 36.011719 229.5625 36.011719 C 229.5625 36.011719 229.453125 36.125 229.246094 36.328125 C 229.050781 36.539062 228.765625 36.847656 228.453125 37.273438 C 227.828125 38.117188 227.066406 39.4375 226.679688 41.128906 C 226.292969 42.808594 226.328125 44.835938 226.976562 46.636719 C 227.601562 48.4375 228.804688 49.992188 230.214844 50.789062 " fill-opacity="1" fill-rule="nonzero"/><path fill="#000000" d="M 227.875 65.773438 C 227.925781 63.738281 228.003906 61.578125 228.304688 59.421875 C 228.625 57.273438 229.125 55.132812 229.855469 53.285156 C 230.5625 51.425781 231.4375 49.859375 232.160156 48.777344 C 232.34375 48.507812 232.507812 48.261719 232.65625 48.050781 C 232.816406 47.84375 232.949219 47.667969 233.058594 47.523438 C 233.28125 47.226562 233.402344 47.066406 233.402344 47.066406 C 233.402344 47.066406 233.234375 47.179688 232.929688 47.382812 C 232.777344 47.488281 232.585938 47.617188 232.367188 47.765625 C 232.160156 47.929688 231.929688 48.125 231.671875 48.339844 C 230.644531 49.214844 229.324219 50.625 228.265625 52.539062 C 227.1875 54.429688 226.460938 56.835938 226.335938 59.246094 C 226.230469 61.652344 226.792969 64.046875 227.875 65.773438 " fill-opacity="1" fill-rule="nonzero"/><path fill="#000000" d="M 230.925781 64.457031 C 228.144531 64.871094 225.058594 66.125 222.300781 67.96875 C 219.550781 69.832031 217.113281 72.226562 215.359375 74.664062 C 213.574219 77.085938 212.414062 79.476562 211.726562 81.222656 C 211.5625 81.660156 211.40625 82.054688 211.285156 82.402344 C 211.175781 82.753906 211.082031 83.058594 211.007812 83.304688 C 210.859375 83.796875 210.777344 84.070312 210.777344 84.070312 C 210.777344 84.070312 210.921875 83.824219 211.179688 83.382812 C 211.308594 83.160156 211.464844 82.886719 211.648438 82.570312 C 211.84375 82.261719 212.066406 81.910156 212.316406 81.519531 C 213.308594 79.96875 214.800781 77.894531 216.71875 75.773438 C 218.617188 73.628906 220.980469 71.507812 223.449219 69.570312 C 225.9375 67.65625 228.554688 65.972656 230.925781 64.457031 " fill-opacity="1" fill-rule="nonzero"/><path fill="#000000" d="M 203.996094 68.359375 C 204.898438 69.503906 205.988281 70.542969 207.113281 71.554688 C 208.246094 72.554688 209.378906 73.5625 210.410156 74.472656 C 211.4375 75.390625 212.34375 76.246094 212.992188 76.878906 C 213.640625 77.511719 214.042969 77.902344 214.042969 77.902344 C 214.042969 77.902344 214 77.773438 213.921875 77.527344 C 213.84375 77.285156 213.71875 76.933594 213.535156 76.507812 C 213.179688 75.652344 212.589844 74.488281 211.710938 73.300781 C 210.847656 72.105469 209.671875 70.914062 208.324219 70 C 206.976562 69.085938 205.449219 68.472656 203.996094 68.359375 " fill-opacity="1" fill-rule="nonzero"/><path fill="#000000" d="M 199.960938 50.300781 C 200.824219 51.855469 201.816406 53.492188 202.667969 55.214844 C 203.519531 56.933594 204.203125 58.765625 204.535156 60.605469 L 204.824219 61.160156 C 204.640625 61.003906 204.511719 60.695312 204.523438 60.464844 L 204.539062 60.644531 C 204.703125 61.539062 204.773438 62.4375 204.75 63.304688 C 204.722656 64.171875 204.589844 65.027344 204.378906 65.796875 C 203.925781 67.355469 203.054688 68.6875 202.128906 69.628906 C 201.195312 70.578125 200.195312 71.125 199.457031 71.410156 C 199.085938 71.550781 198.785156 71.636719 198.574219 71.6875 C 198.367188 71.734375 198.253906 71.761719 198.253906 71.761719 C 198.253906 71.761719 198.367188 71.765625 198.585938 71.773438 C 198.804688 71.78125 199.125 71.769531 199.535156 71.71875 C 200.351562 71.613281 201.554688 71.273438 202.78125 70.414062 C 204.003906 69.5625 205.25 68.210938 206.011719 66.382812 C 206.382812 65.460938 206.625 64.46875 206.726562 63.433594 C 206.820312 62.394531 206.769531 61.328125 206.585938 60.28125 L 206.601562 60.460938 C 206.609375 60.207031 206.476562 59.871094 206.292969 59.691406 L 206.582031 60.246094 C 206.207031 58.097656 205.28125 56.054688 204.070312 54.371094 C 202.859375 52.679688 201.410156 51.324219 199.960938 50.300781 " fill-opacity="1" fill-rule="nonzero"/><path fill="#000000" d="M 199.476562 50.480469 C 200.710938 50.367188 202.027344 49.933594 203.261719 49.207031 C 204.492188 48.476562 205.625 47.449219 206.535156 46.230469 C 207.429688 45.003906 208.113281 43.589844 208.46875 42.117188 C 208.839844 40.648438 208.882812 39.15625 208.699219 37.800781 C 208.351562 35.0625 207.121094 32.921875 206.054688 31.652344 C 205.519531 31.003906 205.03125 30.550781 204.6875 30.257812 C 204.332031 29.976562 204.136719 29.820312 204.136719 29.820312 C 204.136719 29.820312 204.28125 30.023438 204.542969 30.386719 C 204.796875 30.757812 205.148438 31.300781 205.503906 32.011719 C 206.226562 33.417969 206.925781 35.535156 206.949219 37.933594 C 207.019531 40.332031 206.304688 42.90625 204.90625 45.113281 C 204.210938 46.21875 203.375 47.238281 202.453125 48.136719 C 201.523438 49.027344 200.519531 49.8125 199.476562 50.480469 " fill-opacity="1" fill-rule="nonzero"/><path fill="#000000" d="M 206.769531 33.660156 C 208.585938 33.859375 210.734375 33.3125 212.582031 32.191406 C 214.425781 31.058594 215.980469 29.421875 216.953125 27.730469 C 217.953125 26.046875 218.421875 24.378906 218.605469 23.191406 C 218.644531 22.890625 218.6875 22.625 218.710938 22.390625 C 218.722656 22.15625 218.726562 21.949219 218.738281 21.785156 C 218.742188 21.460938 218.75 21.28125 218.75 21.28125 C 218.75 21.28125 218.675781 21.445312 218.546875 21.746094 C 218.488281 21.894531 218.410156 22.078125 218.324219 22.289062 C 218.21875 22.496094 218.105469 22.734375 217.976562 22.992188 C 217.460938 24.023438 216.636719 25.382812 215.515625 26.722656 C 214.414062 28.085938 212.980469 29.382812 211.476562 30.558594 C 209.953125 31.710938 208.332031 32.710938 206.769531 33.660156 " fill-opacity="1" fill-rule="nonzero"/><path fill="#000000" d="M 186 67.761719 C 185.222656 68.613281 184.597656 69.75 184.226562 71.03125 C 183.863281 72.3125 183.761719 73.742188 183.949219 75.148438 C 184.144531 76.554688 184.613281 77.945312 185.351562 79.15625 C 186.074219 80.375 187.039062 81.382812 188.0625 82.152344 C 190.113281 83.710938 192.351562 84.265625 193.890625 84.355469 C 194.667969 84.414062 195.285156 84.367188 195.707031 84.320312 C 196.125 84.261719 196.351562 84.226562 196.351562 84.226562 C 196.351562 84.226562 196.125 84.191406 195.710938 84.128906 C 195.300781 84.058594 194.714844 83.941406 194.015625 83.710938 C 192.621094 83.273438 190.769531 82.355469 189.195312 80.8125 C 187.589844 79.296875 186.398438 77.160156 185.894531 74.808594 C 185.371094 72.457031 185.484375 70.003906 186 67.761719 " fill-opacity="1" fill-rule="nonzero"/><path fill="#000000" d="M 213.390625 91.304688 C 212.601562 92.679688 211.523438 93.929688 210.21875 94.929688 C 208.910156 95.925781 207.367188 96.660156 205.753906 96.996094 C 204.148438 97.332031 202.472656 97.234375 200.925781 96.738281 C 199.382812 96.242188 197.964844 95.414062 196.871094 94.359375 C 195.765625 93.320312 194.96875 92.082031 194.503906 90.847656 C 194.035156 89.609375 193.855469 88.398438 193.835938 87.378906 C 193.808594 86.359375 193.9375 85.53125 194.042969 84.964844 C 194.09375 84.679688 194.144531 84.460938 194.183594 84.316406 C 194.222656 84.167969 194.242188 84.089844 194.242188 84.089844 C 194.242188 84.089844 194.207031 84.160156 194.136719 84.296875 C 194.066406 84.433594 193.96875 84.636719 193.859375 84.910156 C 193.636719 85.449219 193.339844 86.261719 193.183594 87.335938 C 193.011719 88.40625 192.988281 89.738281 193.324219 91.203125 C 193.652344 92.664062 194.410156 94.234375 195.605469 95.574219 C 196.789062 96.933594 198.417969 98.039062 200.28125 98.691406 C 202.136719 99.347656 204.277344 99.449219 206.21875 98.914062 C 208.160156 98.386719 209.878906 97.292969 211.128906 95.914062 C 212.382812 94.535156 213.160156 92.875 213.390625 91.304688 " fill-opacity="1" fill-rule="nonzero"/><path fill="#000000" d="M 210.414062 87.507812 C 210.546875 89.023438 211.226562 90.652344 212.359375 92.039062 C 213.496094 93.417969 215.078125 94.542969 216.867188 95.207031 C 218.660156 95.855469 220.675781 96.066406 222.554688 95.621094 C 223.5 95.4375 224.378906 95.046875 225.1875 94.617188 C 225.972656 94.136719 226.710938 93.621094 227.3125 92.996094 C 228.542969 91.789062 229.386719 90.394531 229.890625 89.058594 C 230.402344 87.722656 230.597656 86.457031 230.59375 85.414062 C 230.609375 85.15625 230.585938 84.910156 230.566406 84.675781 C 230.546875 84.445312 230.542969 84.226562 230.507812 84.027344 C 230.429688 83.625 230.382812 83.28125 230.304688 83.011719 C 230.132812 82.476562 230.042969 82.183594 230.042969 82.183594 C 230.042969 82.183594 230.070312 82.484375 230.113281 83.039062 C 230.132812 83.3125 230.105469 83.65625 230.105469 84.042969 C 230.101562 84.238281 230.066406 84.445312 230.042969 84.664062 C 230.019531 84.882812 229.996094 85.113281 229.9375 85.351562 C 229.605469 87.253906 228.421875 89.84375 226.136719 91.695312 C 225.585938 92.175781 224.9375 92.550781 224.277344 92.902344 C 223.59375 93.207031 222.890625 93.488281 222.132812 93.609375 C 220.640625 93.925781 219.027344 93.777344 217.496094 93.335938 C 215.972656 92.875 214.53125 92.09375 213.316406 91.09375 C 212.109375 90.082031 211.117188 88.859375 210.414062 87.507812 " fill-opacity="1" fill-rule="nonzero"/><path fill="#000000" d="M 228.25 80.65625 C 228.527344 81.492188 229.074219 82.304688 229.816406 82.964844 C 230.558594 83.632812 231.503906 84.113281 232.523438 84.414062 C 233.546875 84.71875 234.660156 84.789062 235.78125 84.640625 C 236.90625 84.472656 237.96875 84.070312 238.949219 83.5 C 240.898438 82.355469 242.398438 80.59375 243.40625 78.703125 C 243.921875 77.753906 244.28125 76.753906 244.589844 75.765625 C 244.851562 74.765625 245.054688 73.773438 245.121094 72.800781 C 245.460938 68.878906 244.308594 65.523438 243.109375 63.472656 C 242.828125 62.945312 242.507812 62.503906 242.25 62.117188 C 241.960938 61.742188 241.726562 61.417969 241.507812 61.171875 C 241.070312 60.691406 240.828125 60.425781 240.828125 60.425781 C 240.828125 60.425781 241.011719 60.730469 241.351562 61.28125 C 241.519531 61.558594 241.6875 61.917969 241.90625 62.320312 C 242.089844 62.742188 242.328125 63.207031 242.515625 63.75 C 243.351562 65.878906 243.964844 69.109375 243.378906 72.585938 C 243.253906 73.453125 243.007812 74.320312 242.734375 75.1875 C 242.417969 76.042969 242.070312 76.90625 241.605469 77.710938 C 240.691406 79.332031 239.4375 80.8125 237.910156 81.824219 C 237.152344 82.320312 236.304688 82.714844 235.457031 82.933594 C 234.59375 83.140625 233.683594 83.210938 232.796875 83.101562 C 231.019531 82.902344 229.332031 82.066406 228.25 80.65625 " fill-opacity="1" fill-rule="nonzero"/><path fill="#000000" d="M 235.511719 59.015625 C 236.65625 60.183594 238.511719 60.902344 240.457031 60.851562 C 242.398438 60.8125 244.429688 60.09375 246.039062 58.738281 C 247.644531 57.382812 248.734375 55.519531 249.3125 53.613281 C 249.898438 51.699219 250.015625 49.742188 249.824219 47.953125 C 249.410156 44.355469 247.964844 41.5625 246.894531 39.679688 C 246.347656 38.738281 245.871094 38.007812 245.535156 37.511719 C 245.195312 37.019531 245.007812 36.75 245.007812 36.75 C 245.007812 36.75 245.132812 37.050781 245.367188 37.601562 C 245.59375 38.152344 245.925781 38.957031 246.300781 39.960938 C 247.03125 41.964844 247.992188 44.832031 248.074219 48.066406 C 248.105469 49.675781 247.890625 51.375 247.355469 52.988281 C 246.820312 54.59375 245.9375 56.113281 244.730469 57.261719 C 242.300781 59.550781 238.480469 60.390625 235.511719 59.015625 " fill-opacity="1" fill-rule="nonzero"/><path fill="#000000" d="M 240.183594 38.652344 C 241.476562 38.523438 242.859375 38.015625 244.113281 37.167969 C 245.363281 36.316406 246.46875 35.121094 247.277344 33.726562 C 248.074219 32.328125 248.589844 30.726562 248.675781 29.117188 C 248.792969 27.507812 248.484375 25.9375 247.949219 24.59375 C 246.886719 21.863281 244.949219 20.066406 243.449219 19.171875 C 242.699219 18.707031 242.046875 18.441406 241.601562 18.28125 C 241.144531 18.136719 240.894531 18.058594 240.894531 18.058594 C 240.894531 18.058594 241.117188 18.199219 241.515625 18.453125 C 241.710938 18.578125 241.9375 18.761719 242.207031 18.953125 C 242.457031 19.167969 242.757812 19.398438 243.050781 19.695312 C 244.253906 20.820312 245.644531 22.734375 246.285156 25.148438 C 246.988281 27.550781 246.738281 30.351562 245.535156 32.800781 C 244.941406 34.023438 244.15625 35.15625 243.246094 36.144531 C 242.328125 37.125 241.289062 37.964844 240.183594 38.652344 " fill-opacity="1" fill-rule="nonzero"/><path fill="#000000" d="M 217.570312 10.699219 C 219.019531 9.75 220.675781 9.015625 222.449219 8.558594 C 224.222656 8.117188 226.113281 7.96875 227.96875 8.160156 C 229.816406 8.367188 231.640625 8.890625 233.207031 9.796875 C 234.003906 10.21875 234.707031 10.777344 235.378906 11.347656 C 236.019531 11.957031 236.632812 12.578125 237.128906 13.273438 C 239.203125 16.007812 239.96875 19.160156 240.027344 21.386719 C 240.054688 21.667969 240.039062 21.933594 240.03125 22.1875 C 240.023438 22.441406 240.03125 22.683594 240.011719 22.90625 C 239.957031 23.347656 239.933594 23.738281 239.878906 24.046875 C 239.761719 24.671875 239.695312 25.015625 239.695312 25.015625 C 239.695312 25.015625 239.824219 24.691406 240.066406 24.097656 C 240.179688 23.796875 240.273438 23.414062 240.40625 22.96875 C 240.46875 22.746094 240.5 22.5 240.554688 22.242188 C 240.605469 21.980469 240.664062 21.707031 240.683594 21.414062 C 240.835938 20.242188 240.832031 18.800781 240.527344 17.21875 C 240.234375 15.636719 239.609375 13.914062 238.574219 12.28125 C 238.078125 11.453125 237.425781 10.683594 236.71875 9.941406 C 235.976562 9.234375 235.167969 8.546875 234.238281 8.019531 C 232.410156 6.90625 230.253906 6.3125 228.117188 6.191406 C 225.980469 6.089844 223.851562 6.484375 222.007812 7.289062 C 220.167969 8.105469 218.617188 9.320312 217.570312 10.699219 " fill-opacity="1" fill-rule="nonzero"/><path fill="#000000" d="M 193.351562 28.625 C 192.980469 27.601562 192.703125 26.527344 192.527344 25.414062 C 192.347656 24.304688 192.304688 23.152344 192.328125 21.992188 C 192.425781 19.679688 192.9375 17.3125 193.921875 15.148438 C 194.871094 12.96875 196.320312 11.019531 198.0625 9.511719 C 199.824219 8.046875 201.894531 6.996094 204 6.5 C 206.105469 5.976562 208.195312 5.890625 210.058594 6.089844 C 211.929688 6.289062 213.5625 6.78125 214.867188 7.339844 C 215.03125 7.40625 215.191406 7.472656 215.347656 7.535156 C 215.5 7.613281 215.644531 7.6875 215.785156 7.757812 C 216.070312 7.90625 216.34375 8.035156 216.589844 8.171875 C 217.066406 8.476562 217.492188 8.71875 217.816406 8.949219 C 218.457031 9.425781 218.808594 9.6875 218.808594 9.6875 C 218.808594 9.6875 218.5 9.375 217.9375 8.800781 C 217.648438 8.519531 217.257812 8.214844 216.816406 7.839844 C 216.582031 7.667969 216.324219 7.496094 216.050781 7.304688 C 215.914062 7.214844 215.773438 7.117188 215.628906 7.015625 C 215.476562 6.929688 215.320312 6.839844 215.160156 6.75 C 213.886719 6.003906 212.230469 5.285156 210.253906 4.875 C 208.289062 4.460938 206.007812 4.351562 203.628906 4.785156 C 201.253906 5.1875 198.816406 6.269531 196.742188 7.9375 C 194.699219 9.632812 193.0625 11.894531 192.101562 14.382812 C 191.105469 16.855469 190.757812 19.539062 190.984375 22.039062 C 191.125 23.289062 191.371094 24.496094 191.78125 25.609375 C 192.183594 26.722656 192.722656 27.738281 193.351562 28.625 " fill-opacity="1" fill-rule="nonzero"/><path fill="#000000" d="M 182.09375 43.675781 C 181.253906 41.273438 180.863281 38.535156 181.164062 35.84375 C 181.484375 33.160156 182.546875 30.59375 184.199219 28.769531 C 185.828125 26.921875 187.839844 25.777344 189.355469 25.171875 C 190.113281 24.855469 190.761719 24.6875 191.207031 24.558594 C 191.65625 24.453125 191.90625 24.394531 191.90625 24.394531 C 191.90625 24.394531 191.648438 24.386719 191.183594 24.367188 C 190.714844 24.378906 190.027344 24.386719 189.179688 24.539062 C 187.496094 24.816406 185.082031 25.613281 182.957031 27.535156 C 181.910156 28.492188 180.945312 29.722656 180.304688 31.144531 C 179.648438 32.554688 179.269531 34.128906 179.199219 35.695312 C 179.0625 38.828125 180.242188 41.898438 182.09375 43.675781 " fill-opacity="1" fill-rule="nonzero"/><path fill="#000000" d="M 187.351562 41.175781 C 185.46875 41.289062 183.433594 41.988281 181.609375 43.210938 C 179.796875 44.441406 178.210938 46.199219 177.109375 48.25 C 176.03125 50.316406 175.40625 52.679688 175.507812 55.015625 C 175.515625 56.183594 175.761719 57.320312 176.066406 58.394531 C 176.425781 59.453125 176.839844 60.46875 177.40625 61.359375 C 178.484375 63.171875 179.871094 64.609375 181.289062 65.644531 C 182.699219 66.6875 184.128906 67.355469 185.359375 67.734375 C 185.660156 67.847656 185.957031 67.910156 186.238281 67.976562 C 186.519531 68.039062 186.78125 68.113281 187.027344 68.152344 C 187.53125 68.210938 187.953125 68.289062 188.304688 68.304688 C 189 68.320312 189.382812 68.332031 189.382812 68.332031 C 189.382812 68.332031 189.011719 68.253906 188.332031 68.113281 C 187.996094 68.042969 187.597656 67.894531 187.128906 67.761719 C 186.894531 67.6875 186.65625 67.574219 186.398438 67.476562 C 186.144531 67.371094 185.871094 67.269531 185.601562 67.121094 C 183.402344 66.09375 180.605469 63.875 178.941406 60.515625 C 178.5 59.691406 178.199219 58.78125 177.933594 57.859375 C 177.722656 56.925781 177.546875 55.957031 177.5625 54.972656 C 177.515625 53 178.027344 50.984375 178.875 49.136719 C 179.746094 47.296875 180.984375 45.625 182.441406 44.261719 C 183.914062 42.914062 185.59375 41.863281 187.351562 41.175781 " fill-opacity="1" fill-rule="nonzero"/><path fill="#000000" d="M 219.636719 20 C 218.875 20.980469 218.300781 22.261719 218.023438 23.675781 C 217.757812 25.09375 217.796875 26.640625 218.160156 28.132812 C 218.53125 29.621094 219.210938 31.0625 220.171875 32.257812 C 221.117188 33.464844 222.308594 34.398438 223.527344 35.050781 C 225.980469 36.378906 228.476562 36.558594 230.128906 36.351562 C 230.96875 36.257812 231.613281 36.082031 232.046875 35.945312 C 232.476562 35.792969 232.710938 35.710938 232.710938 35.710938 C 232.710938 35.710938 232.464844 35.726562 232.015625 35.757812 C 231.566406 35.777344 230.917969 35.78125 230.128906 35.695312 C 228.554688 35.535156 226.394531 34.929688 224.441406 33.554688 C 222.453125 32.21875 220.855469 30.078125 220.058594 27.59375 C 219.65625 26.359375 219.425781 25.0625 219.363281 23.78125 C 219.308594 22.496094 219.40625 21.222656 219.636719 20 " fill-opacity="1" fill-rule="nonzero"/><g clip-path="url(#26fb058261)"><path fill="#000000" d="M 144.515625 18.359375 C 160.3125 25.683594 181.609375 33.878906 198.988281 40.25 C 207.675781 43.433594 215.386719 46.167969 220.9375 48.105469 C 226.496094 50.019531 229.878906 51.1875 229.9375 51.207031 C 229.960938 51.214844 229.960938 51.214844 229.960938 51.214844 C 229.960938 51.214844 229.960938 51.214844 229.9375 51.207031 C 229.882812 51.183594 226.585938 49.78125 221.175781 47.484375 C 215.753906 45.207031 208.207031 42.066406 199.621094 38.609375 C 182.449219 31.695312 161.152344 23.507812 144.515625 18.359375 " fill-opacity="1" fill-rule="nonzero"/></g><path fill="#000000" d="M 149.507812 24.902344 C 164.011719 31.726562 183.609375 39.269531 199.609375 45.109375 C 207.609375 48.035156 214.71875 50.527344 219.835938 52.300781 C 224.960938 54.050781 228.085938 55.117188 228.148438 55.136719 C 228.171875 55.152344 228.171875 55.152344 228.171875 55.152344 C 228.171875 55.152344 228.171875 55.152344 228.148438 55.136719 C 228.089844 55.113281 225.050781 53.8125 220.074219 51.679688 C 215.085938 49.5625 208.140625 46.667969 200.246094 43.46875 C 184.449219 37.085938 164.847656 29.550781 149.507812 24.902344 " fill-opacity="1" fill-rule="nonzero"/><path fill="#000000" d="M 241.039062 60.09375 C 241.035156 57.757812 241.03125 60.09375 241.03125 60.09375 C 241.03125 60.09375 241.035156 62.433594 241.039062 60.09375 " fill-opacity="1" fill-rule="nonzero"/><path fill="#000000" d="M 227.253906 61.070312 L 227.242188 61.058594 C 214.292969 54.875 196.914062 48.144531 182.410156 42.855469 L 182.492188 42.890625 L 182.480469 42.886719 L 182.429688 42.859375 L 182.402344 42.847656 C 166.789062 37.144531 154.5 33.089844 154.5 33.089844 C 154.5 33.089844 166.339844 38.316406 181.75 44.542969 L 181.671875 44.503906 L 181.683594 44.511719 L 181.707031 44.523438 L 181.761719 44.546875 C 196.070312 50.324219 213.484375 56.984375 227.242188 61.0625 L 227.253906 61.070312 " fill-opacity="1" fill-rule="nonzero"/><path fill="#ffffff" d="M 349.773438 106.796875 C 349.773438 106.796875 344.824219 109.761719 343.382812 112.535156 C 343.382812 112.535156 340.582031 108.65625 338.769531 108.253906 C 338.769531 108.253906 340.835938 103.289062 336.679688 99.4375 C 336.679688 99.4375 341.5 97.023438 339.792969 91.613281 C 339.792969 91.613281 343.519531 91.230469 345.457031 86.664062 C 345.457031 86.664062 345.203125 92.519531 350.574219 92.726562 C 350.574219 92.726562 347.960938 96.71875 350.878906 99.710938 C 350.878906 99.710938 348.707031 102.628906 349.773438 106.796875 Z M 345.28125 80.429688 C 345.191406 80.503906 345.101562 80.582031 345.015625 80.660156 L 344.988281 80.648438 Z M 358.234375 102.953125 C 359.480469 101.695312 359.910156 99.789062 359.707031 98.027344 C 359.5 96.269531 358.738281 94.621094 357.875 93.074219 L 357.769531 92.519531 C 358.582031 91.617188 359.097656 90.4375 359.140625 89.222656 C 359.214844 87.121094 357.871094 85.039062 355.929688 84.238281 L 355.921875 84.441406 L 355.5625 84.320312 C 355.238281 82.601562 354.25 81 352.777344 80.050781 C 350.566406 78.617188 347.46875 78.78125 345.375 80.359375 L 345.484375 80.277344 C 342.984375 77.867188 338.734375 77.460938 335.859375 79.445312 C 333.652344 80.964844 332.480469 83.738281 332.667969 86.394531 L 332.640625 87.230469 L 331.671875 87.410156 C 330.28125 87.757812 329.007812 88.582031 328.195312 89.769531 C 326.882812 91.6875 326.886719 94.394531 328.125 96.347656 L 328.273438 96.0625 L 328.257812 96.257812 C 326.480469 97.574219 325.339844 99.785156 325.503906 102.003906 C 325.695312 104.554688 327.589844 106.839844 329.984375 107.675781 L 329.984375 107.753906 L 329.972656 107.734375 C 329.113281 109.375 329.191406 111.472656 330.175781 113.039062 C 330.988281 114.328125 332.382812 115.21875 333.882812 115.460938 L 333.886719 115.464844 L 333.871094 115.460938 C 333.378906 116.691406 333.378906 118.128906 333.941406 119.339844 C 334.746094 121.082031 336.671875 122.238281 338.589844 122.140625 C 340.410156 122.046875 342.117188 120.824219 342.820312 119.144531 C 344.027344 120.265625 345.796875 120.820312 347.398438 120.386719 C 349.707031 119.757812 351.277344 117.1875 350.851562 114.84375 L 350.863281 114.824219 C 351.679688 115.363281 352.78125 115.519531 353.738281 115.242188 C 355.136719 114.839844 356.222656 113.675781 356.855469 112.363281 C 358.101562 109.78125 357.710938 106.492188 355.898438 104.269531 L 355.914062 104.128906 C 356.777344 103.992188 357.617188 103.578125 358.234375 102.953125 " fill-opacity="1" fill-rule="nonzero"/><path fill="#000000" d="M 350.878906 99.710938 C 350.886719 98.789062 350.835938 98.050781 350.746094 97.347656 C 350.65625 96.648438 350.546875 95.980469 350.488281 95.324219 C 350.355469 94.023438 350.574219 92.726562 350.574219 92.726562 C 350.574219 92.726562 350.285156 92.875 349.890625 93.246094 C 349.503906 93.609375 349.019531 94.230469 348.75 95.082031 C 348.480469 95.925781 348.464844 96.988281 348.847656 97.890625 C 349.21875 98.796875 349.972656 99.53125 350.878906 99.710938 " fill-opacity="1" fill-rule="nonzero"/><path fill="#000000" d="M 349.773438 106.796875 C 350.097656 105.753906 350.304688 104.792969 350.492188 103.839844 C 350.699219 102.894531 350.871094 101.949219 351.128906 101.089844 C 351.371094 100.222656 351.667969 99.445312 351.929688 98.878906 C 352.054688 98.589844 352.175781 98.359375 352.261719 98.203125 C 352.339844 98.042969 352.386719 97.953125 352.386719 97.953125 C 352.386719 97.953125 352.292969 97.992188 352.128906 98.066406 C 351.957031 98.136719 351.71875 98.257812 351.4375 98.441406 C 350.875 98.796875 350.132812 99.425781 349.539062 100.34375 C 348.9375 101.25 348.535156 102.453125 348.53125 103.664062 C 348.527344 104.871094 348.960938 106.0625 349.773438 106.796875 " fill-opacity="1" fill-rule="nonzero"/><path fill="#000000" d="M 351.214844 106.175781 C 349.792969 106.082031 348.207031 106.558594 346.832031 107.414062 C 345.460938 108.273438 344.289062 109.480469 343.496094 110.710938 C 342.6875 111.9375 342.226562 113.148438 341.984375 114.023438 C 341.859375 114.460938 341.789062 114.820312 341.75 115.066406 C 341.710938 115.3125 341.6875 115.449219 341.6875 115.449219 C 341.6875 115.449219 341.773438 115.339844 341.925781 115.144531 C 342.074219 114.945312 342.289062 114.660156 342.570312 114.320312 C 343.121094 113.640625 343.914062 112.742188 344.855469 111.816406 C 345.789062 110.882812 346.890625 109.949219 347.984375 109.015625 C 349.089844 108.089844 350.203125 107.179688 351.214844 106.175781 " fill-opacity="1" fill-rule="nonzero"/><path fill="#000000" d="M 338.484375 108.019531 C 339.039062 109.632812 340.109375 110.46875 341.171875 111.222656 C 341.699219 111.585938 342.210938 111.902344 342.59375 112.144531 C 342.980469 112.382812 343.234375 112.535156 343.234375 112.535156 C 343.234375 112.535156 343.230469 112.238281 343.136719 111.777344 C 343.042969 111.3125 342.847656 110.679688 342.472656 110.046875 C 342.105469 109.414062 341.546875 108.792969 340.847656 108.382812 C 340.152344 107.980469 339.3125 107.800781 338.484375 108.019531 " fill-opacity="1" fill-rule="nonzero"/><path fill="#000000" d="M 335.765625 109.628906 C 336.464844 109.886719 337.390625 109.777344 338.175781 109.328125 C 338.964844 108.882812 339.628906 108.132812 340 107.210938 C 340.367188 106.296875 340.425781 105.300781 340.28125 104.398438 C 340.136719 103.496094 339.804688 102.679688 339.390625 101.988281 C 338.550781 100.605469 337.496094 99.75 336.746094 99.179688 C 335.988281 98.617188 335.492188 98.328125 335.492188 98.328125 C 335.492188 98.328125 335.789062 98.824219 336.261719 99.621094 C 336.726562 100.414062 337.375 101.515625 337.808594 102.746094 C 338.238281 103.976562 338.429688 105.371094 338.128906 106.574219 C 337.984375 107.167969 337.707031 107.765625 337.320312 108.292969 C 336.929688 108.820312 336.429688 109.289062 335.765625 109.628906 " fill-opacity="1" fill-rule="nonzero"/><path fill="#000000" d="M 336.34375 99.566406 C 336.976562 99.65625 337.683594 99.546875 338.347656 99.246094 C 339.011719 98.945312 339.625 98.457031 340.109375 97.847656 C 341.101562 96.636719 341.453125 94.898438 341.167969 93.53125 C 340.917969 92.148438 340.195312 91.128906 339.601562 90.566406 C 339.300781 90.277344 339.035156 90.089844 338.84375 89.96875 C 338.652344 89.859375 338.550781 89.796875 338.550781 89.796875 C 338.550781 89.796875 338.605469 89.90625 338.703125 90.097656 C 338.800781 90.292969 338.929688 90.574219 339.050781 90.929688 C 339.300781 91.628906 339.492188 92.625 339.417969 93.667969 C 339.363281 94.71875 339.027344 95.75 338.484375 96.734375 C 337.933594 97.722656 337.226562 98.644531 336.34375 99.566406 " fill-opacity="1" fill-rule="nonzero"/><path fill="#000000" d="M 339.792969 91.613281 C 340.71875 92.011719 341.875 91.867188 342.835938 91.347656 C 343.792969 90.824219 344.5625 89.960938 344.988281 89.074219 C 345.429688 88.1875 345.554688 87.316406 345.554688 86.714844 C 345.558594 86.414062 345.527344 86.171875 345.5 86.007812 C 345.472656 85.847656 345.457031 85.757812 345.457031 85.757812 C 345.457031 85.757812 345.40625 85.835938 345.3125 85.96875 C 345.226562 86.101562 345.097656 86.292969 344.929688 86.515625 C 344.597656 86.964844 344.113281 87.523438 343.550781 88.070312 C 342.996094 88.625 342.351562 89.148438 341.726562 89.714844 C 341.09375 90.269531 340.46875 90.859375 339.792969 91.613281 " fill-opacity="1" fill-rule="nonzero"/><path fill="#000000" d="M 329.972656 107.734375 C 329.46875 108.066406 329.050781 108.597656 328.785156 109.226562 C 328.523438 109.859375 328.421875 110.589844 328.492188 111.320312 C 328.609375 112.785156 329.542969 114.195312 330.648438 114.894531 C 331.746094 115.632812 332.90625 115.800781 333.671875 115.753906 C 334.0625 115.738281 334.359375 115.671875 334.5625 115.617188 C 334.757812 115.558594 334.867188 115.523438 334.867188 115.523438 C 334.867188 115.523438 334.757812 115.488281 334.566406 115.425781 C 334.375 115.363281 334.105469 115.261719 333.792969 115.109375 C 333.171875 114.8125 332.402344 114.28125 331.785156 113.558594 C 331.148438 112.835938 330.714844 111.964844 330.433594 110.980469 C 330.15625 109.992188 330.007812 108.9375 329.972656 107.734375 " fill-opacity="1" fill-rule="nonzero"/><g clip-path="url(#130c18628c)"><path fill="#000000" d="M 342.925781 118.871094 C 341.894531 120.058594 340.554688 120.832031 339.191406 121.054688 C 337.867188 121.285156 336.445312 120.828125 335.445312 119.996094 C 334.425781 119.183594 333.957031 117.964844 333.851562 117.027344 C 333.789062 116.554688 333.804688 116.160156 333.824219 115.886719 C 333.84375 115.613281 333.871094 115.460938 333.871094 115.460938 C 333.871094 115.460938 333.777344 115.582031 333.640625 115.832031 C 333.503906 116.082031 333.320312 116.460938 333.195312 116.980469 C 333.066406 117.5 333 118.164062 333.125 118.914062 C 333.242188 119.664062 333.59375 120.496094 334.183594 121.210938 C 334.765625 121.933594 335.589844 122.527344 336.554688 122.875 C 337.515625 123.230469 338.648438 123.277344 339.65625 122.972656 C 340.660156 122.671875 341.519531 122.0625 342.097656 121.308594 C 342.671875 120.554688 342.960938 119.660156 342.925781 118.871094 " fill-opacity="1" fill-rule="nonzero"/></g><path fill="#000000" d="M 341.515625 117.074219 C 341.433594 117.832031 341.667969 118.710938 342.183594 119.464844 C 342.699219 120.214844 343.484375 120.839844 344.402344 121.207031 C 345.320312 121.566406 346.378906 121.6875 347.371094 121.441406 C 348.367188 121.21875 349.214844 120.660156 349.816406 120.015625 C 351.042969 118.703125 351.332031 117.117188 351.230469 116.101562 C 351.1875 115.585938 351.070312 115.195312 350.96875 114.941406 C 350.859375 114.691406 350.796875 114.554688 350.796875 114.554688 C 350.796875 114.554688 350.792969 114.703125 350.78125 114.96875 C 350.757812 115.230469 350.710938 115.605469 350.578125 116.039062 C 350.328125 116.898438 349.671875 117.992188 348.640625 118.710938 C 346.636719 120.25 343.394531 119.386719 341.515625 117.074219 " fill-opacity="1" fill-rule="nonzero"/><path fill="#000000" d="M 349.949219 113.835938 C 350.066406 114.714844 350.855469 115.597656 351.898438 115.960938 C 352.417969 116.152344 353 116.222656 353.597656 116.167969 C 354.203125 116.101562 354.761719 115.90625 355.28125 115.625 C 356.316406 115.042969 357.089844 114.136719 357.59375 113.171875 C 358.09375 112.195312 358.347656 111.152344 358.386719 110.175781 C 358.484375 108.203125 357.796875 106.585938 357.132812 105.636719 C 356.808594 105.148438 356.488281 104.8125 356.261719 104.59375 C 356.027344 104.386719 355.898438 104.269531 355.898438 104.269531 C 355.898438 104.269531 355.972656 104.421875 356.105469 104.703125 C 356.230469 104.984375 356.398438 105.394531 356.539062 105.914062 C 356.839844 106.941406 356.988281 108.433594 356.648438 109.960938 C 356.332031 111.476562 355.476562 113.046875 354.246094 113.945312 C 353.625 114.390625 352.957031 114.644531 352.171875 114.644531 C 351.402344 114.644531 350.605469 114.425781 349.949219 113.835938 " fill-opacity="1" fill-rule="nonzero"/><path fill="#000000" d="M 353.382812 103.601562 C 353.832031 104.28125 354.757812 104.773438 355.757812 104.820312 C 356.761719 104.878906 357.839844 104.558594 358.707031 103.859375 C 359.570312 103.164062 360.140625 102.195312 360.425781 101.210938 C 360.714844 100.226562 360.746094 99.234375 360.613281 98.34375 C 360.328125 96.542969 359.519531 95.242188 358.925781 94.386719 C 358.3125 93.527344 357.875 93.074219 357.875 93.074219 C 357.875 93.074219 358.0625 93.683594 358.328125 94.667969 C 358.585938 95.644531 358.910156 97.019531 358.863281 98.457031 C 358.816406 99.878906 358.34375 101.402344 357.398438 102.386719 C 356.9375 102.867188 356.308594 103.253906 355.625 103.484375 C 354.9375 103.714844 354.179688 103.792969 353.382812 103.601562 " fill-opacity="1" fill-rule="nonzero"/><path fill="#000000" d="M 355.59375 93.972656 C 356.253906 94.058594 357 93.90625 357.679688 93.542969 C 358.359375 93.171875 358.96875 92.59375 359.40625 91.886719 C 359.839844 91.179688 360.113281 90.347656 360.148438 89.507812 C 360.199219 88.664062 360.011719 87.855469 359.703125 87.175781 C 359.089844 85.800781 358.03125 84.984375 357.242188 84.625 C 356.847656 84.433594 356.511719 84.34375 356.285156 84.292969 C 356.058594 84.257812 355.929688 84.238281 355.929688 84.238281 C 355.929688 84.238281 356.027344 84.320312 356.199219 84.46875 C 356.367188 84.621094 356.601562 84.84375 356.84375 85.148438 C 357.335938 85.742188 357.847656 86.675781 358.042969 87.738281 C 358.257812 88.800781 358.109375 89.894531 357.664062 90.960938 C 357.210938 92.03125 356.53125 93.03125 355.59375 93.972656 " fill-opacity="1" fill-rule="nonzero"/><path fill="#000000" d="M 344.902344 80.757812 C 346.476562 80.089844 348.164062 79.847656 349.777344 80.074219 C 351.394531 80.296875 352.8125 81.0625 353.765625 82.234375 C 354.742188 83.378906 355.222656 84.769531 355.34375 85.800781 C 355.417969 86.320312 355.414062 86.753906 355.398438 87.054688 C 355.375 87.359375 355.363281 87.523438 355.363281 87.523438 C 355.363281 87.523438 355.441406 87.375 355.585938 87.101562 C 355.714844 86.820312 355.890625 86.398438 356.003906 85.828125 C 356.246094 84.714844 356.207031 82.945312 355.214844 81.242188 C 354.726562 80.398438 354 79.585938 353.054688 79.019531 C 352.121094 78.4375 351.011719 78.136719 349.929688 78.105469 C 348.84375 78.082031 347.773438 78.332031 346.882812 78.808594 C 345.992188 79.289062 345.289062 79.992188 344.902344 80.757812 " fill-opacity="1" fill-rule="nonzero"/><path fill="#000000" d="M 333.449219 89.230469 C 333.019531 87.167969 333.28125 84.957031 334.195312 83.0625 C 334.644531 82.113281 335.28125 81.273438 336.023438 80.609375 C 336.777344 79.96875 337.65625 79.480469 338.582031 79.222656 C 340.4375 78.667969 342.308594 78.882812 343.546875 79.320312 C 343.867188 79.414062 344.128906 79.554688 344.378906 79.648438 C 344.613281 79.773438 344.824219 79.871094 344.984375 79.96875 C 345.308594 80.167969 345.484375 80.277344 345.484375 80.277344 C 345.484375 80.277344 345.351562 80.117188 345.105469 79.816406 C 344.976562 79.675781 344.804688 79.511719 344.601562 79.316406 C 344.382812 79.144531 344.144531 78.917969 343.839844 78.734375 C 342.671875 77.925781 340.625 77.144531 338.210938 77.507812 C 337.019531 77.675781 335.765625 78.191406 334.703125 79.035156 C 333.660156 79.886719 332.835938 81.035156 332.378906 82.292969 C 331.902344 83.546875 331.78125 84.898438 331.972656 86.128906 C 332.179688 87.359375 332.707031 88.46875 333.449219 89.230469 " fill-opacity="1" fill-rule="nonzero"/><path fill="#000000" d="M 328.125 96.347656 C 327.992188 95.046875 328.019531 93.839844 328.203125 92.683594 C 328.410156 91.535156 328.800781 90.472656 329.449219 89.628906 C 330.089844 88.773438 330.933594 88.140625 331.605469 87.765625 C 331.941406 87.574219 332.234375 87.449219 332.441406 87.359375 C 332.648438 87.277344 332.765625 87.230469 332.765625 87.230469 C 332.765625 87.230469 332.640625 87.207031 332.417969 87.167969 C 332.191406 87.144531 331.855469 87.105469 331.429688 87.132812 C 330.589844 87.175781 329.339844 87.464844 328.203125 88.390625 C 327.050781 89.292969 326.238281 90.933594 326.238281 92.535156 C 326.214844 94.132812 326.984375 95.675781 328.125 96.347656 " fill-opacity="1" fill-rule="nonzero"/><path fill="#000000" d="M 330.613281 95.167969 C 329.691406 95.070312 328.632812 95.304688 327.675781 95.851562 C 326.726562 96.398438 325.882812 97.25 325.304688 98.277344 C 324.734375 99.3125 324.40625 100.523438 324.46875 101.722656 C 324.507812 102.925781 324.925781 104.046875 325.503906 104.933594 C 326.664062 106.738281 328.390625 107.617188 329.605469 107.882812 C 330.21875 108.03125 330.71875 108.050781 331.054688 108.042969 C 331.386719 108.019531 331.570312 108.007812 331.570312 108.007812 C 331.570312 108.007812 331.398438 107.953125 331.082031 107.855469 C 330.777344 107.746094 330.335938 107.566406 329.847656 107.273438 C 328.871094 106.710938 327.691406 105.601562 327.039062 104.085938 C 326.34375 102.585938 326.355469 100.800781 327.070312 99.164062 C 327.777344 97.527344 329.023438 96.117188 330.613281 95.167969 " fill-opacity="1" fill-rule="nonzero"/><path fill="#000000" d="M 345.878906 85.15625 C 345.375 85.550781 344.976562 86.160156 344.761719 86.863281 C 344.546875 87.570312 344.519531 88.367188 344.679688 89.140625 C 344.84375 89.910156 345.191406 90.664062 345.703125 91.277344 C 346.203125 91.902344 346.835938 92.363281 347.476562 92.667969 C 348.769531 93.28125 350.035156 93.25 350.839844 93.058594 C 351.25 92.964844 351.554688 92.839844 351.753906 92.742188 C 351.953125 92.640625 352.058594 92.582031 352.058594 92.582031 C 352.058594 92.582031 351.941406 92.574219 351.722656 92.554688 C 351.503906 92.53125 351.199219 92.492188 350.835938 92.398438 C 350.117188 92.230469 349.183594 91.828125 348.386719 91.167969 C 347.578125 90.515625 346.984375 89.636719 346.578125 88.601562 C 346.175781 87.5625 345.945312 86.433594 345.878906 85.15625 " fill-opacity="1" fill-rule="nonzero"/><path fill="#000000" d="M 309.683594 81.871094 C 314.894531 85.082031 322.191406 87.933594 328.347656 90.019531 L 328.03125 89.816406 L 328.035156 89.820312 L 328.203125 89.976562 L 328.351562 90.027344 C 334.367188 92.066406 339.292969 93.378906 340.152344 93.605469 L 340.140625 93.589844 L 340.140625 93.59375 C 340.15625 93.617188 340.15625 93.617188 340.140625 93.59375 L 340.152344 93.609375 C 340.253906 93.636719 340.296875 93.648438 340.296875 93.648438 C 340.296875 93.648438 340.253906 93.625 340.160156 93.582031 L 340.171875 93.59375 C 340.15625 93.574219 340.15625 93.574219 340.171875 93.59375 L 340.171875 93.582031 L 340.160156 93.574219 C 339.375 93.167969 334.835938 90.847656 329 88.332031 L 329.316406 88.539062 L 329.3125 88.53125 L 329.207031 88.417969 L 328.996094 88.328125 C 323.03125 85.753906 315.703125 82.976562 309.683594 81.871094 " fill-opacity="1" fill-rule="nonzero"/><path fill="#000000" d="M 306.109375 85.121094 L 306.121094 85.121094 C 317.773438 92.109375 338.949219 97.746094 338.949219 97.746094 C 338.949219 97.746094 319.457031 87.746094 306.121094 85.121094 L 306.109375 85.121094 " fill-opacity="1" fill-rule="nonzero"/><path fill="#000000" d="M 348.4375 107.664062 C 348.398438 107.644531 348.359375 107.621094 348.316406 107.59375 L 348.304688 107.59375 L 348.3125 107.59375 C 342.074219 104.15625 333.828125 100.828125 326.386719 98.132812 L 326.195312 98.058594 L 326.03125 98.066406 L 326.027344 98.066406 L 326.378906 98.132812 C 316.160156 94.425781 307.441406 91.90625 307.441406 91.90625 C 307.441406 91.90625 315.601562 95.875 325.671875 99.972656 L 325.824219 100.035156 L 326.027344 100.039062 L 326.03125 100.039062 L 325.675781 99.972656 C 333.007812 102.957031 341.363281 106.011719 348.296875 107.632812 L 348.308594 107.632812 L 348.300781 107.632812 C 348.351562 107.644531 348.394531 107.652344 348.4375 107.664062 " fill-opacity="1" fill-rule="nonzero"/><path fill="#000000" d="M 307.441406 91.90625 C 312.640625 94.785156 319.261719 97.59375 325.65625 100.019531 L 325.839844 100.089844 L 326.03125 100.089844 L 325.660156 100.019531 C 336.671875 104.199219 347.011719 107.25 348.300781 107.625 L 348.304688 107.625 C 348.3125 107.625 348.300781 107.621094 348.308594 107.625 L 348.304688 107.621094 C 348.394531 107.652344 348.4375 107.664062 348.4375 107.664062 C 348.4375 107.664062 348.398438 107.644531 348.3125 107.605469 L 348.308594 107.601562 C 348.320312 107.605469 348.304688 107.601562 348.304688 107.601562 L 348.308594 107.601562 C 347.101562 107.019531 337.378906 102.359375 326.40625 98.082031 L 326.230469 98.015625 L 326.027344 98.015625 L 326.398438 98.082031 C 320.027344 95.601562 313.230469 93.25 307.441406 91.90625 " fill-opacity="1" fill-rule="nonzero"/></svg>