<svg xmlns="http://www.w3.org/2000/svg" xmlns:xlink="http://www.w3.org/1999/xlink" width="700" zoomAndPan="magnify" viewBox="0 0 525 127.500001" height="170" preserveAspectRatio="xMidYMid meet" version="1.0"><path fill="#f7ede1" d="M 180.367188 72.105469 C 180.714844 70.957031 180.882812 69.699219 180.855469 68.316406 C 180.777344 64.085938 178.011719 56.871094 172.503906 58.078125 C 170.957031 58.414062 169.976562 59.796875 169.976562 61.378906 C 169.976562 63.273438 171.515625 64.8125 173.398438 64.8125 C 175.417969 64.8125 180.488281 63.648438 179.480469 70.539062 C 179.429688 70.976562 179.335938 71.371094 179.230469 71.765625 C 179.589844 71.878906 179.988281 72 180.367188 72.105469 Z M 200.855469 50.03125 C 183.070312 44.304688 161.816406 41.488281 152.75 57.195312 C 148.144531 65.195312 150.675781 75.257812 159.222656 79.292969 C 164.800781 81.953125 172.222656 81.332031 176.761719 77.566406 C 176.179688 77.339844 175.601562 77.132812 175.070312 76.914062 C 170.726562 79.453125 164.246094 79.355469 160.125 77.410156 C 152.726562 73.917969 151.527344 64.355469 155.859375 57.476562 C 164.597656 43.605469 184.0625 46.171875 200.773438 51.671875 C 200.785156 51.117188 200.820312 50.558594 200.855469 50.03125 Z M 258.746094 57.097656 C 257.039062 62.457031 253.667969 67.464844 249.113281 71.449219 L 247.09375 70.285156 C 248.039062 69.441406 248.949219 68.515625 249.796875 67.519531 C 252.414062 64.433594 254.332031 60.855469 255.375 57.097656 Z M 206.027344 59.988281 C 207.28125 63.753906 209.65625 67.078125 213.558594 69.320312 C 219.503906 72.726562 219.589844 68.085938 224.003906 66.308594 C 226.085938 65.46875 228.773438 65.328125 230.703125 66.605469 C 234.167969 68.882812 233.144531 72.996094 229.992188 74.925781 C 223.742188 78.734375 210.414062 72.367188 205.8125 65.242188 C 204.75 63.585938 203.929688 61.863281 203.339844 60.082031 C 200.46875 51.441406 203.394531 40.707031 209.214844 34.035156 C 222.648438 18.644531 249.042969 20.660156 257.824219 39.492188 C 258.675781 41.339844 259.269531 43.222656 259.613281 45.121094 L 255.707031 45.121094 C 255.3125 43.484375 254.746094 41.898438 253.980469 40.339844 C 245.804688 23.886719 221.191406 22.023438 210.160156 36.214844 C 205.460938 42.265625 203.578125 52.582031 206.027344 59.988281 Z M 195.574219 77.746094 C 209.171875 80.878906 221.980469 81.480469 233.433594 77.734375 C 236.96875 76.578125 240.289062 75.117188 243.273438 73.191406 L 243.679688 73.4375 L 245.304688 74.371094 C 244.683594 74.777344 244.046875 75.171875 243.386719 75.5625 C 227.464844 84.335938 210.730469 84.78125 193.535156 80.914062 C 183.878906 78.742188 174.542969 75.355469 165.421875 71.589844 C 161.789062 70.09375 158.269531 68.550781 154.785156 66.964844 C 154.785156 65.800781 154.921875 64.652344 155.109375 63.585938 C 159.257812 65.355469 163.417969 67.097656 167.539062 68.71875 C 176.6875 72.324219 185.972656 75.5625 195.574219 77.746094 Z M 11.246094 91.246094 C 1.074219 75.640625 9.589844 52.140625 19.460938 43.222656 C 34.203125 29.894531 58.113281 27.757812 80.371094 33.53125 C 98.765625 38.316406 118.457031 47.277344 138.085938 56.082031 C 141.730469 57.71875 145.511719 59.394531 149.347656 61.089844 C 149.128906 62.035156 148.960938 63.09375 148.867188 64.234375 C 144.769531 62.296875 140.617188 60.3125 136.285156 58.261719 C 119.746094 50.390625 103.152344 42.609375 86.808594 38.1875 C 65.589844 32.445312 38.949219 33.101562 22.828125 45.734375 C 9.878906 55.875 4.179688 76.210938 11.246094 91.246094 Z M 344.734375 72.105469 C 344.402344 70.957031 344.226562 69.699219 344.257812 68.316406 C 344.328125 64.085938 347.097656 56.871094 352.597656 58.078125 C 354.128906 58.414062 355.125 59.796875 355.125 61.378906 C 355.125 63.273438 353.601562 64.8125 351.71875 64.8125 C 349.699219 64.8125 344.621094 63.648438 345.617188 70.539062 C 345.679688 70.976562 345.765625 71.371094 345.878906 71.765625 C 345.511719 71.878906 345.128906 72 344.734375 72.105469 Z M 324.246094 50.03125 C 342.042969 44.304688 363.296875 41.488281 372.347656 57.195312 C 376.960938 65.195312 374.429688 75.257812 365.878906 79.292969 C 360.292969 81.953125 352.890625 81.332031 348.355469 77.566406 C 348.9375 77.339844 349.503906 77.132812 350.039062 76.914062 C 354.371094 79.453125 360.867188 79.355469 365 77.410156 C 372.382812 73.917969 373.574219 64.355469 369.238281 57.476562 C 360.5 43.605469 341.046875 46.171875 324.34375 51.671875 C 324.324219 51.117188 324.289062 50.558594 324.246094 50.03125 Z M 278.9375 73.523438 C 274.785156 75.941406 270.59375 78.347656 266.347656 80.6875 C 265.546875 80.285156 264.75 79.878906 263.957031 79.453125 C 268.316406 77.15625 272.632812 74.730469 276.90625 72.28125 C 290.238281 64.609375 303.671875 57.5 318.175781 52.132812 L 318.660156 51.949219 C 318.695312 52.527344 318.703125 53.097656 318.703125 53.683594 C 304.757812 58.945312 291.773438 66.074219 278.9375 73.523438 Z M 266.363281 57.097656 C 268.070312 62.457031 271.441406 67.464844 275.996094 71.449219 L 278.007812 70.285156 C 277.054688 69.441406 276.152344 68.515625 275.3125 67.519531 C 272.683594 64.433594 270.785156 60.855469 269.734375 57.097656 Z M 319.070312 59.988281 C 317.828125 63.753906 315.453125 67.078125 311.542969 69.320312 C 305.605469 72.726562 305.515625 68.085938 301.097656 66.308594 C 299.019531 65.46875 296.34375 65.328125 294.398438 66.605469 C 290.941406 68.882812 291.964844 72.996094 295.117188 74.925781 C 301.359375 78.734375 314.691406 72.367188 319.289062 65.242188 C 320.359375 63.585938 321.171875 61.863281 321.769531 60.082031 C 324.648438 51.441406 321.714844 40.707031 315.890625 34.035156 C 302.460938 18.644531 276.054688 20.660156 267.292969 39.492188 C 266.433594 41.339844 265.847656 43.222656 265.496094 45.121094 L 269.402344 45.121094 C 269.785156 43.484375 270.355469 41.898438 271.136719 40.339844 C 279.296875 23.886719 303.90625 22.023438 314.9375 36.214844 C 319.640625 42.265625 321.53125 52.582031 319.070312 59.988281 Z M 329.535156 77.746094 C 315.9375 80.878906 303.136719 81.480469 291.675781 77.734375 C 288.136719 76.578125 284.808594 75.117188 281.835938 73.191406 L 281.414062 73.4375 L 279.804688 74.371094 C 280.425781 74.777344 281.0625 75.171875 281.71875 75.5625 C 297.636719 84.335938 314.371094 84.78125 331.566406 80.914062 C 341.214844 78.742188 350.574219 75.355469 359.703125 71.589844 C 363.3125 70.09375 366.832031 68.550781 370.324219 66.964844 C 370.324219 65.800781 370.195312 64.652344 369.992188 63.585938 C 365.859375 65.355469 361.683594 67.097656 357.566406 68.71875 C 348.417969 72.324219 339.136719 75.5625 329.535156 77.746094 Z M 513.878906 91.246094 C 524.042969 75.640625 515.515625 52.140625 505.65625 43.222656 C 490.90625 29.894531 466.992188 27.757812 444.738281 33.53125 C 426.332031 38.316406 406.644531 47.277344 387.03125 56.082031 C 383.378906 57.71875 379.597656 59.394531 375.753906 61.089844 C 375.972656 62.035156 376.148438 63.09375 376.242188 64.234375 C 380.351562 62.296875 384.484375 60.3125 388.816406 58.261719 C 405.363281 50.390625 421.949219 42.609375 438.292969 38.1875 C 459.523438 32.445312 486.160156 33.101562 502.277344 45.734375 C 515.226562 55.875 520.9375 76.210938 513.878906 91.246094 Z M 262.554688 55.925781 L 269.769531 55.925781 C 272.414062 55.925781 274.59375 53.761719 274.59375 51.117188 C 274.59375 48.464844 272.414062 46.300781 269.769531 46.300781 L 255.339844 46.300781 C 252.6875 46.300781 250.515625 48.464844 250.515625 51.117188 C 250.515625 53.761719 252.6875 55.925781 255.339844 55.925781 Z M 260.65625 83.601562 C 233.863281 97.695312 204.417969 107.417969 166.945312 92.636719 C 134.347656 79.792969 36.722656 29.070312 19.632812 78.382812 C 14.039062 94.492188 30.195312 108.25 42.75 101.023438 C 52.316406 95.535156 49.050781 79.792969 37.765625 79.355469 C 27.304688 79.625 33.023438 86.726562 33.023438 88.136719 C 33.023438 89.929688 31.566406 91.375 29.78125 91.375 C 26.691406 91.375 26.027344 87.925781 26.5 85.5 C 27.101562 82.542969 29.503906 80.335938 32.199219 79.195312 C 44.027344 74.234375 54.890625 87.960938 47.800781 98.84375 C 44.351562 104.132812 37.023438 106.363281 31.8125 104.894531 C 20.765625 101.792969 14.589844 89.476562 18.59375 77.925781 C 35.558594 28.984375 133.515625 74.90625 167.933594 88.476562 C 203.875 102.652344 232.289062 95.089844 258.21875 82.261719 Z M 246.179688 73.523438 C 233.328125 66.074219 220.359375 58.945312 206.414062 53.683594 C 206.40625 53.097656 206.421875 52.527344 206.433594 51.949219 L 206.9375 52.132812 C 221.445312 57.5 234.878906 64.609375 248.203125 72.28125 C 255.777344 76.632812 263.28125 80.640625 271.222656 84.34375 C 296 95.859375 323.222656 101.875 357.183594 88.476562 C 391.589844 74.90625 489.546875 28.984375 506.515625 77.925781 C 510.515625 89.476562 504.335938 101.792969 493.304688 104.894531 C 488.085938 106.363281 480.757812 104.132812 477.300781 98.84375 C 470.214844 87.960938 481.082031 74.234375 492.902344 79.195312 C 495.613281 80.335938 498.003906 82.542969 498.59375 85.5 C 499.089844 87.925781 498.410156 91.375 495.328125 91.375 C 493.539062 91.375 492.09375 89.929688 492.09375 88.136719 C 492.09375 86.726562 497.796875 79.625 487.332031 79.355469 C 476.054688 79.792969 472.789062 95.535156 482.351562 101.023438 C 494.90625 108.25 511.058594 94.492188 505.472656 78.382812 C 488.394531 29.070312 390.753906 79.792969 358.164062 92.636719 C 323.527344 106.289062 295.753906 99.027344 270.59375 86.734375 C 262.386719 82.71875 254.035156 78.078125 246.179688 73.523438 " fill-opacity="1" fill-rule="nonzero"/></svg>