<svg xmlns="http://www.w3.org/2000/svg" xmlns:xlink="http://www.w3.org/1999/xlink" width="700" zoomAndPan="magnify" viewBox="0 0 525 127.500001" height="170" preserveAspectRatio="xMidYMid meet" version="1.0"><defs><clipPath id="1e164b4332"><path d="M 2.167969 20.03125 L 522.832031 20.03125 L 522.832031 106.691406 L 2.167969 106.691406 Z M 2.167969 20.03125 " clip-rule="nonzero"/></clipPath></defs><g clip-path="url(#1e164b4332)"><path fill="#000000" d="M 479.863281 93.894531 C 481.542969 93.167969 483.476562 93.941406 484.207031 95.609375 C 484.9375 97.285156 484.164062 99.230469 482.496094 99.953125 C 480.820312 100.679688 478.871094 99.910156 478.148438 98.242188 C 477.421875 96.5625 478.1875 94.621094 479.863281 93.894531 Z M 45.136719 93.894531 C 43.460938 93.167969 41.515625 93.941406 40.789062 95.609375 C 40.066406 97.285156 40.832031 99.230469 42.511719 99.953125 C 44.179688 100.679688 46.121094 99.910156 46.847656 98.242188 C 47.578125 96.5625 46.804688 94.621094 45.136719 93.894531 Z M 312.316406 38.015625 C 313.78125 37.265625 314.367188 35.464844 313.617188 33.996094 C 312.863281 32.53125 311.066406 31.949219 309.597656 32.703125 C 308.140625 33.453125 307.554688 35.25 308.300781 36.714844 C 309.050781 38.183594 310.855469 38.765625 312.316406 38.015625 Z M 512.722656 94.074219 C 514.8125 93.195312 516.648438 91.710938 518 89.535156 C 520.320312 85.785156 520.257812 78.757812 518.65625 74.804688 C 517.65625 72.34375 516.152344 70.085938 514.257812 68.230469 C 505.632812 59.8125 490.007812 61.1875 479.171875 67.328125 C 472.574219 71.066406 467.234375 76.433594 460.953125 82.207031 C 460.175781 82.925781 459.386719 83.648438 458.601562 84.355469 C 460.210938 83.394531 462.011719 82.535156 463.902344 81.847656 C 469.582031 79.789062 475.8125 80.054688 479.253906 83.578125 C 478.203125 83.261719 476.863281 83.609375 476.398438 84.003906 C 469.328125 79.957031 457.964844 85.539062 452.816406 89.257812 C 444.804688 95.554688 436 100.011719 424.734375 98.316406 C 416.632812 96.851562 410.972656 92.472656 406.320312 85.808594 C 403.785156 82.066406 401.554688 78.199219 399.179688 74.363281 C 399.714844 77.234375 399.699219 80.257812 399.164062 83.195312 C 396.550781 97.4375 383.425781 103.757812 369.851562 102.3125 C 362.945312 101.570312 357.40625 98.28125 352.910156 93.335938 C 349.925781 89.726562 348.390625 86.421875 348.101562 81.710938 C 347.996094 74.769531 352.273438 68.140625 358.527344 65.238281 C 362.5625 63.492188 366.617188 63.332031 370.726562 64.90625 C 375.265625 66.804688 378.511719 70.222656 379.507812 75.121094 C 380.335938 80.226562 378.503906 84.75 374.074219 87.527344 C 370.382812 89.53125 365.101562 90.359375 361.769531 87.492188 C 360.324219 86.246094 359.359375 84.441406 359.199219 82.390625 C 358.894531 78.273438 361.980469 74.683594 366.097656 74.375 C 370.207031 74.066406 373.796875 77.152344 374.109375 81.269531 C 374.273438 83.484375 373.457031 85.550781 372.023438 87.03125 C 372.398438 86.785156 372.78125 86.511719 373.164062 86.203125 C 376.347656 83.515625 377.515625 79.828125 376.496094 75.785156 C 375.433594 72.183594 372.859375 69.78125 369.375 68.507812 C 366.253906 67.464844 363.242188 67.667969 360.246094 69.011719 C 355.535156 71.277344 352.183594 76.433594 352.085938 81.648438 C 352.183594 85.433594 353.355469 88.152344 355.554688 91.1875 C 367.394531 106.300781 392.585938 99.8125 395.449219 81.90625 C 396.722656 73.917969 393.328125 65.132812 386.1875 59.921875 C 379.992188 55.414062 372.597656 54.078125 365.179688 54.761719 C 350.730469 56.089844 340.355469 63.328125 329.640625 72.292969 C 325.488281 75.765625 321.160156 79.417969 315.800781 82.976562 C 307.644531 88.066406 296.703125 92.175781 286.605469 91.539062 C 276.289062 90.878906 267.953125 85.0625 266.285156 74.960938 C 267.714844 75.261719 268.964844 75.613281 269.871094 75.921875 C 270.753906 80.324219 273.421875 83.375 275.894531 84.921875 C 280.027344 87.503906 286.609375 88.488281 291.863281 87.90625 C 301.605469 86.816406 311.039062 82.539062 316.542969 76.222656 C 321.9375 70.035156 324.386719 61.457031 322.601562 55.589844 C 323.386719 55.660156 325.191406 55.316406 325.675781 54.171875 C 327.15625 62.566406 324.800781 69.820312 320.789062 75.113281 C 323.214844 73.316406 325.46875 71.464844 327.667969 69.617188 C 338.445312 60.558594 348.90625 51.8125 363.726562 50.71875 C 372.683594 50.058594 381.664062 52.644531 390.601562 58.929688 C 394.816406 61.894531 398.84375 64.140625 405.722656 62.414062 C 411.144531 60.867188 415.230469 57.449219 415.933594 51.714844 C 416.140625 49.367188 415.847656 47.523438 414.902344 45.445312 C 413.992188 46.382812 412.539062 46.90625 410.578125 46.671875 C 405.335938 46.046875 399.378906 36.808594 391.898438 40.660156 C 395.753906 35.796875 401.839844 34.769531 406.8125 35.410156 C 408.035156 35.507812 409.25 35.78125 410.578125 36.226562 C 410.84375 36.328125 411.109375 36.4375 411.363281 36.546875 L 411.378906 36.550781 L 411.394531 36.5625 C 411.546875 36.625 411.695312 36.691406 411.847656 36.757812 C 414.746094 38.09375 416.777344 39.828125 418.644531 42.671875 C 420.496094 45.804688 421.144531 48.5625 420.929688 52.195312 C 420.164062 60.175781 414.410156 65.183594 406.6875 66.792969 C 404.0625 67.195312 401.542969 67.117188 399.101562 66.527344 C 399.503906 67.082031 399.902344 67.65625 400.308594 68.265625 C 401.0625 69.398438 401.726562 70.507812 402.421875 71.675781 C 402.996094 72.675781 409.195312 83.921875 409.339844 83.828125 C 413.28125 89.9375 418.035156 94.019531 425.234375 95.628906 C 441.117188 98.695312 450.863281 89.277344 460.378906 79.199219 C 466.761719 72.441406 471.765625 66.804688 478.660156 62.976562 C 490.835938 56.214844 508.136719 56.011719 517.171875 65.796875 C 519.257812 68.046875 520.839844 70.757812 521.816406 73.664062 C 523.601562 79.007812 523.125 86.253906 519.582031 90.800781 C 517.683594 93.246094 515.171875 94.984375 512.375 96.027344 C 502.234375 99.824219 488.894531 94.699219 487.816406 82.910156 C 487.40625 76.855469 491.496094 71.84375 497.640625 71.5625 C 500.378906 71.523438 502.835938 72.324219 504.8125 74.25 C 506.328125 75.8125 507.351562 77.835938 507.027344 80.070312 C 506.800781 81.207031 506.378906 81.949219 505.535156 82.742188 C 506.101562 81.847656 506.34375 81.089844 506.308594 80.023438 C 506.183594 78.15625 505.097656 76.660156 503.667969 75.535156 C 501.9375 74.253906 499.941406 73.820312 497.8125 74.039062 C 493.375 74.625 490.632812 78.214844 490.992188 82.628906 C 491.402344 86.417969 493.601562 90.109375 496.535156 92.273438 C 501.15625 95.679688 507.707031 96.191406 512.722656 94.074219 Z M 319.976562 43.832031 C 321.800781 42.898438 322.523438 40.660156 321.589844 38.839844 C 320.652344 37.011719 318.417969 36.289062 316.589844 37.222656 C 314.773438 38.15625 314.046875 40.394531 314.984375 42.21875 C 315.917969 44.042969 318.148438 44.765625 319.976562 43.832031 Z M 324.519531 54.40625 C 326.953125 53.167969 327.914062 50.195312 326.667969 47.765625 C 325.425781 45.339844 322.449219 44.378906 320.019531 45.617188 C 317.59375 46.859375 316.640625 49.835938 317.878906 52.265625 C 319.121094 54.695312 322.097656 55.652344 324.519531 54.40625 Z M 212.675781 38.015625 C 211.214844 37.265625 210.632812 35.464844 211.382812 33.996094 C 212.132812 32.53125 213.933594 31.949219 215.402344 32.703125 C 216.871094 33.453125 217.453125 35.25 216.699219 36.714844 C 215.941406 38.183594 214.144531 38.765625 212.675781 38.015625 Z M 12.277344 94.074219 C 10.179688 93.195312 8.34375 91.710938 6.996094 89.535156 C 4.679688 85.785156 4.742188 78.757812 6.347656 74.804688 C 7.339844 72.34375 8.839844 70.085938 10.75 68.230469 C 19.363281 59.8125 34.992188 61.1875 45.824219 67.328125 C 52.425781 71.066406 57.769531 76.433594 64.046875 82.207031 C 64.828125 82.925781 65.609375 83.648438 66.398438 84.355469 C 64.78125 83.394531 62.992188 82.535156 61.097656 81.847656 C 55.414062 79.789062 49.1875 80.054688 45.734375 83.578125 C 46.796875 83.261719 48.136719 83.609375 48.589844 84.003906 C 55.667969 79.957031 67.039062 85.539062 72.175781 89.257812 C 80.191406 95.554688 89.003906 100.011719 100.269531 98.316406 C 108.371094 96.851562 114.03125 92.472656 118.679688 85.808594 C 121.214844 82.066406 123.441406 78.199219 125.820312 74.363281 C 125.273438 77.234375 125.292969 80.257812 125.839844 83.195312 C 128.441406 97.4375 141.570312 103.757812 155.148438 102.3125 C 162.054688 101.570312 167.59375 98.28125 172.089844 93.335938 C 175.074219 89.726562 176.597656 86.421875 176.886719 81.710938 C 176.996094 74.769531 172.71875 68.140625 166.472656 65.238281 C 162.429688 63.492188 158.390625 63.332031 154.261719 64.90625 C 149.726562 66.804688 146.488281 70.222656 145.488281 75.121094 C 144.660156 80.226562 146.488281 84.75 150.917969 87.527344 C 154.617188 89.53125 159.894531 90.359375 163.226562 87.492188 C 164.675781 86.246094 165.652344 84.441406 165.800781 82.390625 C 166.109375 78.273438 163.019531 74.683594 158.902344 74.375 C 154.789062 74.066406 151.195312 77.152344 150.890625 81.269531 C 150.71875 83.484375 151.539062 85.550781 152.980469 87.03125 C 152.597656 86.785156 152.21875 86.511719 151.835938 86.203125 C 148.644531 83.515625 147.492188 79.828125 148.503906 75.785156 C 149.566406 72.183594 152.132812 69.78125 155.625 68.507812 C 158.734375 67.464844 161.761719 67.667969 164.746094 69.011719 C 169.457031 71.277344 172.816406 76.433594 172.90625 81.648438 C 172.816406 85.433594 171.648438 88.152344 169.445312 91.1875 C 157.597656 106.300781 132.40625 99.8125 129.550781 81.90625 C 128.277344 73.917969 131.675781 65.132812 138.816406 59.921875 C 145 55.414062 152.402344 54.078125 159.816406 54.761719 C 174.269531 56.089844 184.648438 63.328125 195.359375 72.292969 C 199.511719 75.765625 203.839844 79.417969 209.191406 82.976562 C 217.347656 88.066406 228.300781 92.175781 238.390625 91.539062 C 248.714844 90.878906 257.042969 85.0625 258.714844 74.960938 C 257.285156 75.261719 256.03125 75.613281 255.121094 75.921875 C 254.246094 80.324219 251.578125 83.375 249.097656 84.921875 C 244.972656 87.503906 238.390625 88.488281 233.132812 87.90625 C 223.390625 86.816406 213.960938 82.539062 208.457031 76.222656 C 203.066406 70.035156 200.605469 61.457031 202.390625 55.589844 C 201.605469 55.660156 199.804688 55.316406 199.324219 54.171875 C 197.847656 62.566406 200.199219 69.820312 204.203125 75.113281 C 201.785156 73.316406 199.53125 71.464844 197.335938 69.617188 C 186.554688 60.558594 176.085938 51.8125 161.269531 50.71875 C 152.308594 50.058594 143.335938 52.644531 134.398438 58.929688 C 130.183594 61.894531 126.15625 64.140625 119.28125 62.414062 C 113.851562 60.867188 109.769531 57.449219 109.058594 51.714844 C 108.851562 49.367188 109.15625 47.523438 110.09375 45.445312 C 111.007812 46.382812 112.457031 46.90625 114.425781 46.671875 C 119.664062 46.046875 125.621094 36.808594 133.105469 40.660156 C 129.242188 35.796875 123.160156 34.769531 118.175781 35.410156 C 116.960938 35.507812 115.746094 35.78125 114.425781 36.226562 C 114.160156 36.328125 113.894531 36.4375 113.636719 36.546875 L 113.613281 36.550781 L 113.609375 36.5625 C 113.445312 36.625 113.304688 36.691406 113.148438 36.757812 C 110.257812 38.09375 108.226562 39.828125 106.359375 42.671875 C 104.5 45.804688 103.855469 48.5625 104.070312 52.195312 C 104.839844 60.175781 110.589844 65.183594 118.3125 66.792969 C 120.9375 67.195312 123.457031 67.117188 125.902344 66.527344 C 125.496094 67.082031 125.097656 67.65625 124.6875 68.265625 C 123.9375 69.398438 123.269531 70.507812 122.578125 71.675781 C 122.003906 72.675781 115.800781 83.921875 115.664062 83.828125 C 111.71875 89.9375 106.964844 94.019531 99.765625 95.628906 C 83.882812 98.695312 74.132812 89.277344 64.613281 79.199219 C 58.238281 72.441406 53.238281 66.804688 46.34375 62.976562 C 34.164062 56.214844 16.867188 56.011719 7.824219 65.796875 C 5.742188 68.046875 4.160156 70.757812 3.183594 73.664062 C 1.394531 79.007812 1.871094 86.253906 5.40625 90.800781 C 7.316406 93.246094 9.828125 94.984375 12.625 96.027344 C 22.769531 99.824219 36.105469 94.699219 37.183594 82.910156 C 37.589844 76.855469 33.503906 71.84375 27.359375 71.5625 C 24.621094 71.523438 22.152344 72.324219 20.191406 74.25 C 18.667969 75.8125 17.648438 77.835938 17.972656 80.070312 C 18.199219 81.207031 18.625 81.949219 19.460938 82.742188 C 18.890625 81.847656 18.660156 81.089844 18.691406 80.023438 C 18.820312 78.15625 19.894531 76.660156 21.332031 75.535156 C 23.0625 74.253906 25.050781 73.820312 27.183594 74.039062 C 31.613281 74.625 34.363281 78.214844 34 82.628906 C 33.59375 86.417969 31.394531 90.109375 28.457031 92.273438 C 23.847656 95.679688 17.292969 96.191406 12.277344 94.074219 Z M 205.027344 43.832031 C 203.199219 42.898438 202.480469 40.660156 203.410156 38.839844 C 204.34375 37.011719 206.582031 36.289062 208.402344 37.222656 C 210.226562 38.15625 210.949219 40.394531 210.019531 42.21875 C 209.085938 44.042969 206.847656 44.765625 205.027344 43.832031 Z M 200.476562 54.40625 C 198.046875 53.167969 197.089844 50.195312 198.324219 47.765625 C 199.570312 45.339844 202.546875 44.378906 204.972656 45.617188 C 207.398438 46.859375 208.359375 49.835938 207.117188 52.265625 C 205.878906 54.695312 202.902344 55.652344 200.476562 54.40625 Z M 274.210938 71.917969 C 274.914062 72.574219 275.429688 73.324219 275.65625 74.148438 C 276.082031 75.667969 275.164062 77.667969 273.03125 78.34375 C 271.78125 78.742188 270.542969 78.304688 270.945312 78.003906 C 271.402344 77.644531 271.789062 77.21875 271.90625 76.851562 C 273.269531 72.375 251.71875 72.375 253.09375 76.851562 C 253.207031 77.21875 253.59375 77.644531 254.054688 78.003906 C 254.457031 78.304688 253.21875 78.742188 251.964844 78.34375 C 249.839844 77.667969 248.921875 75.667969 249.339844 74.148438 C 249.566406 73.324219 250.078125 72.574219 250.792969 71.917969 C 254.902344 68.117188 270.097656 68.117188 274.210938 71.917969 Z M 266.46875 67.121094 C 268.203125 59.789062 273.929688 54.796875 281.597656 53.820312 C 289.449219 52.824219 296.628906 57.195312 299.429688 63.539062 C 302.585938 70.660156 299.867188 79.070312 292.15625 81.640625 C 290.515625 82.136719 289.1875 82.308594 287.46875 82.207031 C 281.386719 81.65625 277.382812 76.835938 279.488281 70.894531 C 280.089844 75.472656 282.640625 78.59375 287.574219 78.457031 C 288.765625 78.390625 289.703125 78.191406 290.824219 77.773438 C 296.839844 75.386719 298.628906 68.503906 295.230469 62.941406 C 293.199219 59.621094 288.660156 56.292969 282.109375 57.636719 C 276.214844 59.003906 272.097656 62.304688 270.308594 67.914062 C 269.21875 67.609375 267.882812 67.335938 266.46875 67.121094 Z M 258.53125 67.121094 C 256.796875 59.789062 251.074219 54.796875 243.402344 53.820312 C 235.554688 52.824219 228.367188 57.195312 225.566406 63.539062 C 222.414062 70.660156 225.136719 79.070312 232.839844 81.640625 C 234.480469 82.136719 235.8125 82.308594 237.527344 82.207031 C 243.613281 81.65625 247.617188 76.835938 245.515625 70.894531 C 244.910156 75.472656 242.359375 78.59375 237.417969 78.457031 C 236.230469 78.390625 235.292969 78.191406 234.179688 77.773438 C 228.164062 75.386719 226.371094 68.503906 229.769531 62.941406 C 231.804688 59.621094 236.34375 56.292969 242.894531 57.636719 C 248.777344 59.003906 252.890625 62.304688 254.6875 67.914062 C 255.78125 67.609375 257.105469 67.335938 258.53125 67.121094 Z M 298.566406 81.941406 C 314.796875 69.996094 311.15625 44.421875 301.722656 35.542969 C 293.921875 28.191406 283.945312 36.636719 292.964844 46.007812 C 297.835938 51.066406 310.902344 67.238281 298.566406 81.941406 Z M 226.429688 81.941406 C 210.203125 69.996094 213.84375 44.421875 223.273438 35.542969 C 231.074219 28.191406 241.054688 36.636719 232.023438 46.007812 C 227.160156 51.066406 214.101562 67.238281 226.429688 81.941406 Z M 480.960938 34.707031 C 479.433594 33.953125 477.945312 33.84375 476.605469 34.394531 C 474.953125 35.074219 473.449219 36.800781 473.4375 39.179688 C 473.433594 41.933594 475.546875 43.773438 477.632812 44.167969 C 481.425781 44.875 482.296875 41.78125 484.28125 40.460938 C 486.492188 38.996094 489.894531 39.96875 492.339844 42.472656 C 495.171875 45.371094 496.078125 49.457031 494.027344 53.105469 C 492.882812 55.136719 490.589844 56.660156 488.242188 55.363281 C 490.515625 54.378906 491.246094 50.84375 488.171875 49.347656 C 486.507812 48.546875 482.683594 48.882812 478.816406 49.007812 C 474.820312 49.128906 471.167969 48.601562 468.386719 46.667969 C 462.828125 42.804688 462.328125 34.40625 467.132812 29.945312 C 469.847656 27.429688 473.140625 26.789062 476.480469 26.78125 C 480.164062 26.773438 489.289062 29.167969 493.09375 26.539062 C 495.777344 24.683594 495.621094 21.738281 493.921875 20.386719 C 496.226562 19.09375 499.558594 21.5 500.199219 24.464844 C 501.386719 29.957031 496.75 36.667969 489.542969 37.308594 C 486.800781 37.542969 484.316406 36.347656 480.960938 34.707031 Z M 44.035156 34.707031 C 45.566406 33.953125 47.054688 33.84375 48.382812 34.394531 C 50.042969 35.074219 51.546875 36.800781 51.554688 39.179688 C 51.5625 41.933594 49.445312 43.773438 47.367188 44.167969 C 43.566406 44.875 42.707031 41.78125 40.710938 40.460938 C 38.507812 38.996094 35.101562 39.96875 32.652344 42.472656 C 29.824219 45.371094 28.917969 49.457031 30.972656 53.105469 C 32.117188 55.136719 34.40625 56.660156 36.75 55.363281 C 34.484375 54.378906 33.746094 50.84375 36.828125 49.347656 C 38.492188 48.546875 42.316406 48.882812 46.1875 49.007812 C 50.171875 49.128906 53.832031 48.601562 56.613281 46.667969 C 62.164062 42.804688 62.671875 34.40625 57.863281 29.945312 C 55.152344 27.429688 51.855469 26.789062 48.519531 26.78125 C 44.835938 26.773438 35.710938 29.167969 31.910156 26.539062 C 29.222656 24.683594 29.375 21.738281 31.070312 20.386719 C 28.769531 19.09375 25.445312 21.5 24.796875 24.464844 C 23.613281 29.957031 28.242188 36.667969 35.449219 37.308594 C 38.195312 37.542969 40.683594 36.347656 44.035156 34.707031 Z M 490.621094 38.808594 C 497.40625 42.683594 509.101562 41.820312 515.378906 37.09375 C 521.769531 32.28125 519.3125 25.046875 511.234375 28.925781 C 505.042969 31.902344 497.59375 40.023438 490.621094 38.808594 Z M 34.378906 38.808594 C 27.597656 42.683594 15.898438 41.820312 9.613281 37.09375 C 3.230469 32.28125 5.6875 25.046875 13.761719 28.925781 C 19.953125 31.902344 27.410156 40.023438 34.378906 38.808594 Z M 427.464844 60.683594 C 438.386719 56.480469 446.773438 61.558594 452.242188 61.394531 C 458.421875 61.210938 458.300781 54.105469 451.730469 52.765625 C 444.410156 51.269531 434.589844 55.164062 427.464844 60.683594 Z M 97.53125 60.683594 C 86.617188 56.480469 78.230469 61.558594 72.761719 61.394531 C 66.570312 61.210938 66.695312 54.105469 73.261719 52.765625 C 80.589844 51.269531 90.40625 55.164062 97.53125 60.683594 Z M 438.945312 49.28125 C 429.945312 55.425781 422.742188 64.296875 420.785156 75.238281 C 420.40625 77.90625 420.386719 80.054688 420.910156 82.714844 C 421.421875 84.949219 422.105469 86.589844 423.515625 88.414062 C 425.078125 90.257812 426.746094 91.355469 429.050781 92.105469 C 430.253906 92.457031 431.210938 92.582031 432.464844 92.519531 C 433.769531 92.414062 434.722656 92.144531 435.890625 91.550781 C 436.890625 91 437.558594 90.429688 438.285156 89.558594 C 438.984375 88.675781 439.402344 87.90625 439.75 86.84375 C 440.0625 85.785156 440.15625 84.945312 440.046875 83.84375 C 439.894531 82.738281 439.597656 81.941406 438.976562 81.015625 C 438.339844 80.136719 437.71875 79.578125 436.746094 79.085938 C 435.890625 78.6875 435.171875 78.53125 434.226562 78.582031 C 433.359375 78.671875 432.734375 78.90625 432.066406 79.46875 C 431.738281 79.765625 431.53125 80.027344 431.320312 80.410156 C 431.097656 80.851562 430.988281 81.207031 430.914062 81.691406 C 430.871094 82.035156 430.871094 82.308594 430.921875 82.652344 C 430.972656 82.96875 431.050781 83.199219 431.210938 83.480469 C 431.371094 83.730469 431.527344 83.898438 431.78125 84.054688 C 432.066406 84.210938 432.296875 84.261719 432.617188 84.265625 C 432.292969 84.269531 432.058594 84.222656 431.769531 84.074219 C 431.507812 83.921875 431.351562 83.753906 431.179688 83.5 C 431.007812 83.222656 430.921875 82.984375 430.851562 82.667969 C 430.789062 82.316406 430.785156 82.035156 430.824219 81.683594 C 430.886719 81.183594 430.988281 80.8125 431.207031 80.355469 C 431.421875 79.957031 431.628906 79.667969 431.953125 79.351562 C 432.640625 78.75 433.296875 78.488281 434.207031 78.367188 C 435.195312 78.277344 435.960938 78.425781 436.867188 78.816406 C 437.902344 79.308594 438.578125 79.886719 439.273438 80.792969 C 439.964844 81.773438 440.300781 82.609375 440.492188 83.792969 C 440.640625 84.953125 440.558594 85.859375 440.257812 86.992188 C 439.917969 88.140625 439.488281 88.976562 438.773438 89.9375 C 438.007812 90.902344 437.292969 91.535156 436.230469 92.15625 C 434.972656 92.835938 433.949219 93.15625 432.527344 93.308594 C 431.167969 93.414062 430.121094 93.304688 428.8125 92.960938 C 426.277344 92.207031 424.453125 91.058594 422.691406 89.089844 C 421.105469 87.160156 420.316406 85.398438 419.699219 82.988281 C 419.601562 82.585938 419.523438 82.195312 419.453125 81.789062 C 419.070312 79.390625 419.078125 77.445312 419.359375 75.039062 C 421.0625 63.511719 428.394531 54.074219 437.644531 47.394531 C 442.304688 44.144531 447.980469 41.683594 453.632812 41.019531 C 453.304688 41.804688 453.621094 42.964844 454.074219 43.425781 C 448.566406 44.121094 443.503906 46.179688 438.945312 49.28125 Z M 86.058594 49.28125 C 95.054688 55.425781 102.253906 64.296875 104.21875 75.238281 C 104.59375 77.90625 104.617188 80.054688 104.09375 82.714844 C 103.578125 84.949219 102.898438 86.589844 101.488281 88.414062 C 99.914062 90.257812 98.25 91.355469 95.949219 92.105469 C 94.75 92.457031 93.78125 92.582031 92.527344 92.519531 C 91.222656 92.414062 90.277344 92.144531 89.105469 91.550781 C 88.109375 91 87.433594 90.429688 86.707031 89.558594 C 86.015625 88.675781 85.597656 87.90625 85.25 86.84375 C 84.9375 85.785156 84.84375 84.945312 84.953125 83.84375 C 85.101562 82.738281 85.398438 81.941406 86.023438 81.015625 C 86.664062 80.136719 87.28125 79.578125 88.253906 79.085938 C 89.105469 78.6875 89.828125 78.53125 90.773438 78.582031 C 91.632812 78.671875 92.265625 78.90625 92.941406 79.46875 C 93.261719 79.765625 93.464844 80.027344 93.671875 80.410156 C 93.898438 80.851562 94.007812 81.207031 94.082031 81.691406 C 94.125 82.035156 94.132812 82.308594 94.078125 82.652344 C 94.023438 82.96875 93.945312 83.199219 93.78125 83.480469 C 93.625 83.730469 93.472656 83.898438 93.21875 84.054688 C 92.941406 84.210938 92.707031 84.261719 92.386719 84.265625 C 92.707031 84.269531 92.941406 84.222656 93.222656 84.074219 C 93.492188 83.921875 93.652344 83.753906 93.820312 83.5 C 93.992188 83.222656 94.078125 82.984375 94.144531 82.667969 C 94.203125 82.316406 94.214844 82.035156 94.179688 81.683594 C 94.109375 81.183594 94.007812 80.8125 93.789062 80.355469 C 93.582031 79.957031 93.375 79.667969 93.035156 79.351562 C 92.351562 78.75 91.695312 78.488281 90.792969 78.367188 C 89.804688 78.277344 89.042969 78.425781 88.132812 78.816406 C 87.089844 79.308594 86.421875 79.886719 85.722656 80.792969 C 85.035156 81.773438 84.699219 82.609375 84.507812 83.792969 C 84.359375 84.953125 84.4375 85.859375 84.742188 86.992188 C 85.085938 88.140625 85.515625 88.976562 86.226562 89.9375 C 86.988281 90.902344 87.703125 91.535156 88.769531 92.15625 C 90.023438 92.835938 91.054688 93.15625 92.472656 93.308594 C 93.824219 93.414062 94.878906 93.304688 96.1875 92.960938 C 98.71875 92.207031 100.546875 91.058594 102.304688 89.089844 C 103.894531 87.160156 104.679688 85.398438 105.296875 82.988281 C 105.394531 82.585938 105.472656 82.195312 105.542969 81.789062 C 105.925781 79.390625 105.917969 77.445312 105.636719 75.039062 C 103.9375 63.511719 96.605469 54.074219 87.355469 47.394531 C 82.699219 44.144531 77.011719 41.683594 71.367188 41.019531 C 71.6875 41.804688 71.378906 42.964844 70.921875 43.425781 C 76.429688 44.121094 81.496094 46.179688 86.058594 49.28125 Z M 462.746094 35.160156 C 461.234375 38.636719 463.015625 43.339844 464.984375 45.191406 C 462.914062 48.746094 454.585938 46.820312 454.765625 40.636719 C 454.875 36.710938 459.167969 33.511719 462.746094 35.160156 Z M 62.25 35.160156 C 63.757812 38.636719 61.984375 43.339844 60.015625 45.191406 C 62.074219 48.746094 70.410156 46.820312 70.230469 40.636719 C 70.125 36.710938 65.832031 33.511719 62.25 35.160156 Z M 480.234375 35.476562 C 477.886719 34.589844 475.464844 35.273438 474.597656 37.527344 C 473.101562 41.367188 477.632812 44.167969 480.566406 42.550781 C 482.953125 41.230469 483.277344 39.105469 487.011719 38.808594 C 483.214844 38.15625 482.898438 36.476562 480.234375 35.476562 Z M 44.757812 35.476562 C 47.109375 34.589844 49.539062 35.273438 50.402344 37.527344 C 51.894531 41.367188 47.367188 44.167969 44.433594 42.550781 C 42.046875 41.230469 41.722656 39.105469 37.984375 38.808594 C 41.789062 38.15625 42.09375 36.476562 44.757812 35.476562 Z M 334.121094 63.367188 C 338.953125 52.332031 353.082031 46.191406 361.921875 47.515625 C 369.613281 48.667969 376.574219 50.519531 382.929688 47.425781 C 388.320312 44.796875 393.304688 37.613281 390 32.9375 C 389.761719 37.703125 384.492188 40.03125 378.988281 40.46875 C 375.140625 40.777344 370.976562 41.296875 367.667969 44.582031 C 361.011719 37.96875 352.796875 40.167969 347.515625 43.792969 C 341.710938 47.773438 335.316406 55.554688 334.121094 63.367188 Z M 190.878906 63.367188 C 186.042969 52.332031 171.910156 46.191406 163.078125 47.515625 C 155.390625 48.667969 148.425781 50.519531 142.074219 47.425781 C 136.679688 44.796875 131.699219 37.613281 135.003906 32.9375 C 135.238281 37.703125 140.5 40.03125 146.011719 40.46875 C 149.851562 40.777344 154.023438 41.296875 157.332031 44.582031 C 163.980469 37.96875 172.203125 40.167969 177.480469 43.792969 C 183.28125 47.773438 189.675781 55.554688 190.878906 63.367188 Z M 477.15625 84.144531 C 479.382812 83.179688 481.96875 84.199219 482.933594 86.425781 C 483.898438 88.65625 482.878906 91.242188 480.652344 92.207031 C 478.425781 93.171875 475.839844 92.148438 474.875 89.917969 C 473.90625 87.695312 474.933594 85.105469 477.15625 84.144531 Z M 47.84375 84.144531 C 45.621094 83.179688 43.03125 84.199219 42.0625 86.425781 C 41.09375 88.65625 42.117188 91.242188 44.347656 92.207031 C 46.570312 93.171875 49.160156 92.148438 50.125 89.917969 C 51.09375 87.695312 50.066406 85.105469 47.84375 84.144531 Z M 480.449219 101.851562 C 481.792969 101.269531 483.363281 101.890625 483.945312 103.234375 C 484.53125 104.578125 483.902344 106.148438 482.570312 106.726562 C 481.214844 107.3125 479.65625 106.695312 479.074219 105.347656 C 478.488281 104 479.105469 102.441406 480.449219 101.851562 Z M 44.542969 101.851562 C 43.199219 101.269531 41.636719 101.890625 41.058594 103.234375 C 40.472656 104.578125 41.085938 106.148438 42.429688 106.726562 C 43.777344 107.3125 45.34375 106.695312 45.925781 105.347656 C 46.515625 104 45.890625 102.441406 44.542969 101.851562 " fill-opacity="1" fill-rule="nonzero"/></g></svg>