<svg xmlns="http://www.w3.org/2000/svg" xmlns:xlink="http://www.w3.org/1999/xlink" width="793" zoomAndPan="magnify" viewBox="0 0 595.5 842.249979" height="1122" preserveAspectRatio="xMidYMid meet" version="1.0"><defs><clipPath id="8606153a01"><path d="M 328 99 L 594.753906 99 L 594.753906 288.492188 L 328 288.492188 Z M 328 99 " clip-rule="nonzero"/></clipPath><clipPath id="4d0c10c8bd"><path d="M 0.015625 95 L 266 95 L 266 286 L 0.015625 286 Z M 0.015625 95 " clip-rule="nonzero"/></clipPath></defs><g clip-path="url(#8606153a01)"><path fill="#b38d45" d="M 330.222656 288.234375 C 330.292969 288.242188 330.367188 288.25 330.441406 288.25 C 330.484375 288.25 330.523438 288.261719 330.566406 288.261719 L 592.386719 288.261719 C 593.148438 288.261719 593.859375 287.878906 594.277344 287.25 C 594.699219 286.625 594.78125 285.8125 594.488281 285.113281 L 577.058594 243.480469 C 576.648438 242.507812 575.621094 241.933594 574.574219 242.117188 L 540.71875 247.882812 L 530.574219 231.511719 C 530.046875 230.65625 529.019531 230.246094 528.042969 230.511719 L 506.582031 236.277344 L 490.863281 220.570312 L 490.863281 196.226562 L 511.835938 184.148438 C 512.835938 183.574219 513.246094 182.339844 512.792969 181.285156 L 504.886719 162.792969 L 532.90625 142.542969 C 533.761719 141.925781 534.082031 140.796875 533.671875 139.824219 L 517.273438 100.648438 C 516.980469 99.949219 516.359375 99.4375 515.613281 99.292969 C 514.867188 99.148438 514.101562 99.382812 513.566406 99.921875 L 328.9375 284.347656 C 328.9375 284.347656 328.929688 284.359375 328.917969 284.367188 C 328.902344 284.386719 328.890625 284.402344 328.875 284.421875 C 328.765625 284.539062 328.671875 284.667969 328.589844 284.796875 C 328.574219 284.832031 328.546875 284.859375 328.527344 284.894531 C 328.507812 284.921875 328.492188 284.949219 328.480469 284.976562 L 328.480469 284.984375 C 328.425781 285.078125 328.398438 285.1875 328.371094 285.285156 C 328.355469 285.332031 328.335938 285.378906 328.328125 285.421875 C 328.328125 285.433594 328.316406 285.449219 328.316406 285.460938 L 328.316406 285.46875 C 328.28125 285.632812 328.253906 285.804688 328.253906 285.976562 C 328.253906 286.125 328.273438 286.269531 328.300781 286.421875 C 328.300781 286.449219 328.316406 286.476562 328.328125 286.503906 C 328.355469 286.625 328.382812 286.734375 328.425781 286.851562 L 328.425781 286.859375 C 328.480469 286.988281 328.546875 287.097656 328.617188 287.207031 C 328.644531 287.242188 328.671875 287.269531 328.699219 287.304688 C 328.753906 287.378906 328.800781 287.449219 328.863281 287.515625 C 328.902344 287.550781 328.9375 287.585938 328.972656 287.625 C 329.027344 287.679688 329.082031 287.734375 329.148438 287.777344 C 329.191406 287.816406 329.238281 287.84375 329.28125 287.871094 C 329.328125 287.898438 329.363281 287.925781 329.402344 287.953125 C 329.402344 287.953125 329.457031 287.96875 329.472656 287.980469 C 329.519531 288.007812 329.566406 288.023438 329.609375 288.042969 C 329.648438 288.058594 329.683594 288.078125 329.730469 288.097656 C 329.730469 288.097656 329.792969 288.105469 329.820312 288.113281 C 329.882812 288.132812 329.957031 288.152344 330.019531 288.167969 C 330.085938 288.1875 330.148438 288.195312 330.210938 288.207031 Z M 483.160156 242.582031 L 468.984375 228.417969 L 468.984375 208.84375 L 475.375 205.160156 L 475.375 225.433594 C 475.375 226.035156 475.613281 226.617188 476.039062 227.046875 L 489.800781 240.789062 L 483.152344 242.570312 Z M 464.429688 229.363281 C 464.429688 229.964844 464.667969 230.546875 465.09375 230.976562 L 478.082031 243.945312 L 471.433594 245.726562 L 458.03125 232.339844 L 458.03125 215.140625 L 464.421875 211.453125 L 464.421875 229.355469 Z M 453.484375 233.285156 C 453.484375 233.886719 453.722656 234.46875 454.148438 234.894531 L 466.359375 247.09375 L 346.738281 279.265625 L 453.484375 217.765625 Z M 588.960938 283.710938 L 357.421875 283.710938 L 539.9375 252.621094 L 573.554688 246.902344 Z M 535.875 248.703125 L 377.796875 275.625 L 527.589844 235.339844 L 535.867188 248.703125 Z M 486.3125 221.515625 C 486.3125 222.117188 486.546875 222.699219 486.976562 223.125 L 501.507812 237.640625 L 494.863281 239.425781 L 479.910156 224.488281 L 479.910156 202.53125 L 486.304688 198.847656 L 486.304688 221.503906 Z M 507.8125 181.21875 L 367.609375 261.992188 L 501.109375 165.53125 L 507.820312 181.21875 Z M 514.386719 105.542969 L 528.773438 139.925781 L 352.3125 267.429688 L 514.394531 105.542969 Z M 514.386719 105.542969 " fill-opacity="1" fill-rule="nonzero"/></g><path fill="#b38d45" d="M 309.40625 4.542969 L 309.40625 265.394531 C 309.40625 265.613281 309.441406 265.820312 309.496094 266.019531 C 309.496094 266.039062 309.496094 266.046875 309.503906 266.066406 C 309.503906 266.066406 309.503906 266.085938 309.503906 266.09375 C 309.570312 266.292969 309.660156 266.476562 309.769531 266.648438 C 309.898438 266.832031 310.042969 266.996094 310.207031 267.128906 C 310.253906 267.167969 310.308594 267.183594 310.351562 267.222656 C 310.488281 267.3125 310.617188 267.414062 310.769531 267.476562 L 310.796875 267.476562 L 310.796875 267.484375 C 310.796875 267.484375 310.835938 267.503906 310.851562 267.503906 L 310.871094 267.503906 C 310.972656 267.539062 311.0625 267.566406 311.164062 267.585938 C 311.179688 267.585938 311.191406 267.59375 311.207031 267.59375 C 311.335938 267.621094 311.453125 267.632812 311.582031 267.640625 C 311.617188 267.640625 311.664062 267.640625 311.699219 267.640625 C 311.78125 267.640625 311.871094 267.640625 311.953125 267.621094 C 312 267.621094 312.046875 267.605469 312.089844 267.59375 C 312.136719 267.59375 312.171875 267.585938 312.21875 267.578125 C 312.21875 267.578125 312.273438 267.558594 312.300781 267.550781 C 312.390625 267.523438 312.484375 267.484375 312.574219 267.449219 C 312.609375 267.429688 312.648438 267.429688 312.675781 267.414062 C 312.691406 267.414062 312.703125 267.394531 312.71875 267.386719 C 312.773438 267.359375 312.828125 267.320312 312.875 267.292969 C 312.9375 267.257812 312.992188 267.222656 313.046875 267.175781 C 313.09375 267.140625 313.148438 267.09375 313.191406 267.050781 C 313.230469 267.023438 313.265625 266.996094 313.292969 266.957031 L 498.449219 82.039062 C 498.988281 81.5 499.222656 80.730469 499.070312 79.984375 C 498.914062 79.238281 498.40625 78.617188 497.703125 78.328125 L 455.90625 61.199219 C 454.925781 60.800781 453.796875 61.128906 453.183594 61.992188 L 433.324219 89.980469 L 414.566406 85.566406 C 413.59375 85.339844 412.574219 85.777344 412.074219 86.648438 L 400.980469 105.886719 L 378.746094 105.886719 L 361.515625 88.679688 L 367.792969 65.320312 C 368.09375 64.210938 367.507812 63.046875 366.445312 62.617188 L 347.769531 55.132812 L 353.25 21.023438 C 353.414062 19.984375 352.839844 18.957031 351.867188 18.558594 L 312.546875 2.429688 C 311.84375 2.140625 311.042969 2.222656 310.417969 2.648438 C 309.789062 3.066406 309.40625 3.777344 309.40625 4.542969 Z M 372.855469 120.941406 L 392.3125 120.941406 L 388.878906 126.898438 L 368.839844 126.898438 L 354.980469 113.054688 L 356.890625 105.933594 L 371.25 120.269531 C 371.679688 120.695312 372.253906 120.933594 372.863281 120.933594 Z M 366.28125 130.785156 C 366.707031 131.210938 367.28125 131.449219 367.890625 131.449219 L 386.257812 131.449219 L 382.824219 137.40625 L 363.875 137.40625 L 351.703125 125.242188 L 353.613281 118.121094 L 366.28125 130.773438 Z M 361.316406 141.289062 C 361.746094 141.714844 362.320312 141.953125 362.929688 141.953125 L 380.203125 141.953125 L 318.394531 249.195312 L 350.335938 130.308594 L 361.316406 141.28125 Z M 492.8125 81.238281 L 329.09375 244.78125 L 436.140625 93.882812 L 455.851562 66.09375 L 492.804688 81.238281 Z M 430.492188 93.980469 L 337.777344 224.671875 L 415.179688 90.378906 Z M 376.207031 109.761719 C 376.632812 110.191406 377.207031 110.425781 377.816406 110.425781 L 398.367188 110.425781 L 394.9375 116.382812 L 373.792969 116.382812 L 358.25 100.859375 L 360.160156 93.734375 Z M 362.882812 66.085938 L 320.925781 222.234375 L 347.039062 59.734375 L 362.882812 66.09375 Z M 348.476562 22.078125 L 313.957031 236.878906 L 313.957031 7.933594 Z M 348.476562 22.078125 " fill-opacity="1" fill-rule="nonzero"/><path fill="#b38d45" d="M 282.234375 265.8125 C 282.289062 265.855469 282.34375 265.910156 282.398438 265.949219 C 282.453125 265.984375 282.507812 266.019531 282.5625 266.058594 C 282.617188 266.09375 282.679688 266.128906 282.734375 266.15625 C 282.761719 266.167969 282.78125 266.183594 282.808594 266.195312 C 282.808594 266.195312 282.878906 266.222656 282.917969 266.230469 C 282.988281 266.257812 283.054688 266.285156 283.125 266.304688 C 283.152344 266.304688 283.179688 266.320312 283.207031 266.332031 C 283.253906 266.339844 283.289062 266.339844 283.328125 266.347656 C 283.382812 266.359375 283.4375 266.367188 283.480469 266.375 C 283.554688 266.386719 283.636719 266.386719 283.707031 266.394531 C 283.761719 266.394531 283.808594 266.394531 283.863281 266.394531 C 283.945312 266.394531 284.027344 266.375 284.109375 266.367188 C 284.15625 266.367188 284.199219 266.359375 284.246094 266.347656 C 284.347656 266.320312 284.457031 266.292969 284.554688 266.25 C 284.574219 266.25 284.601562 266.238281 284.621094 266.230469 L 284.636719 266.230469 C 284.847656 266.140625 285.019531 266.019531 285.191406 265.882812 C 285.203125 265.882812 285.210938 265.867188 285.21875 265.867188 C 285.722656 265.4375 286.011719 264.820312 286.023438 264.164062 C 286.023438 264.148438 286.023438 264.128906 286.023438 264.109375 L 286.023438 2.578125 C 286.023438 1.8125 285.640625 1.101562 285.011719 0.683594 C 284.382812 0.265625 283.574219 0.183594 282.871094 0.476562 L 241.195312 17.886719 C 240.21875 18.292969 239.65625 19.320312 239.828125 20.367188 L 245.601562 54.1875 L 229.210938 64.320312 C 228.355469 64.847656 227.953125 65.875 228.210938 66.847656 L 233.980469 88.289062 L 218.257812 103.996094 L 193.890625 103.996094 L 181.796875 83.046875 C 181.222656 82.046875 179.996094 81.636719 178.929688 82.09375 L 160.417969 89.988281 L 140.148438 62 C 139.527344 61.144531 138.398438 60.828125 137.425781 61.234375 L 98.207031 77.617188 C 97.503906 77.910156 96.996094 78.535156 96.851562 79.273438 C 96.824219 79.417969 96.804688 79.5625 96.804688 79.710938 C 96.804688 80.308594 97.039062 80.882812 97.46875 81.320312 L 282.097656 265.75 C 282.097656 265.75 282.160156 265.804688 282.1875 265.832031 Z M 224.765625 118.785156 L 238.527344 105.042969 L 240.3125 111.683594 L 226.132812 125.84375 L 206.539062 125.84375 L 202.851562 119.457031 L 223.144531 119.457031 C 223.746094 119.457031 224.332031 119.222656 224.757812 118.796875 Z M 228.691406 129.71875 L 241.675781 116.75 L 243.460938 123.386719 L 230.058594 136.777344 L 212.839844 136.777344 L 209.152344 130.390625 L 227.070312 130.390625 C 227.671875 130.390625 228.253906 130.15625 228.683594 129.726562 Z M 232.617188 140.652344 L 244.828125 128.453125 L 277.035156 247.949219 L 215.46875 141.316406 L 231.003906 141.316406 C 231.605469 141.316406 232.1875 141.078125 232.617188 140.652344 Z M 281.496094 5.988281 L 281.496094 237.277344 L 244.636719 21.386719 L 281.488281 5.996094 Z M 246.449219 59.015625 L 273.402344 216.921875 L 233.070312 67.285156 Z M 220.84375 107.863281 L 235.375 93.34375 L 237.160156 99.984375 L 222.207031 114.921875 L 200.226562 114.921875 L 196.539062 108.535156 L 219.222656 108.535156 C 219.824219 108.535156 220.40625 108.296875 220.832031 107.871094 Z M 178.890625 87.050781 L 259.75 227.089844 L 163.195312 93.746094 L 178.902344 87.042969 Z M 103.132812 80.484375 L 137.550781 66.101562 L 157.804688 94.0625 L 265.195312 242.363281 L 103.132812 80.472656 Z M 103.132812 80.484375 " fill-opacity="1" fill-rule="nonzero"/><g clip-path="url(#4d0c10c8bd)"><path fill="#b38d45" d="M 263.457031 285.222656 C 263.53125 285.214844 263.59375 285.195312 263.667969 285.175781 C 263.722656 285.160156 263.785156 285.148438 263.839844 285.132812 C 263.859375 285.132812 263.886719 285.132812 263.902344 285.113281 C 263.941406 285.105469 263.96875 285.078125 264.003906 285.066406 C 264.09375 285.03125 264.175781 284.996094 264.257812 284.949219 C 264.285156 284.941406 264.3125 284.929688 264.332031 284.914062 C 264.332031 284.914062 264.367188 284.886719 264.386719 284.878906 C 264.558594 284.769531 264.714844 284.640625 264.851562 284.484375 C 264.867188 284.46875 264.886719 284.441406 264.90625 284.414062 C 265.03125 284.257812 265.140625 284.085938 265.234375 283.894531 C 265.234375 283.886719 265.25 283.875 265.25 283.859375 L 265.25 283.832031 L 265.269531 283.832031 L 265.269531 283.792969 L 265.289062 283.792969 L 265.289062 283.757812 C 265.289062 283.757812 265.304688 283.710938 265.316406 283.683594 C 265.371094 283.523438 265.40625 283.347656 265.425781 283.175781 C 265.425781 283.140625 265.433594 283.101562 265.433594 283.066406 C 265.433594 282.875 265.425781 282.695312 265.386719 282.511719 C 265.386719 282.492188 265.386719 282.476562 265.386719 282.457031 C 265.386719 282.457031 265.371094 282.410156 265.359375 282.394531 C 265.316406 282.230469 265.261719 282.085938 265.1875 281.929688 C 265.1875 281.921875 265.1875 281.902344 265.179688 281.894531 C 265.078125 281.710938 264.949219 281.558594 264.804688 281.410156 C 264.785156 281.394531 264.777344 281.375 264.769531 281.355469 L 79.628906 96.417969 C 79.09375 95.882812 78.320312 95.644531 77.574219 95.800781 C 76.824219 95.945312 76.207031 96.464844 75.914062 97.164062 L 58.769531 138.914062 C 58.367188 139.898438 58.695312 141.023438 59.5625 141.636719 L 87.578125 161.472656 L 83.164062 180.210938 C 82.9375 181.191406 83.371094 182.203125 84.246094 182.703125 L 103.503906 193.78125 L 103.503906 215.992188 L 86.277344 233.203125 L 62.894531 226.9375 C 61.785156 226.636719 60.617188 227.21875 60.191406 228.28125 L 52.695312 246.9375 L 18.550781 241.460938 C 17.503906 241.296875 16.480469 241.871094 16.082031 242.84375 L -0.0546875 282.128906 C -0.171875 282.410156 -0.226562 282.703125 -0.226562 282.996094 C -0.226562 283.441406 -0.0976562 283.875 0.15625 284.257812 C 0.574219 284.886719 1.285156 285.269531 2.050781 285.269531 L 263.128906 285.269531 C 263.175781 285.269531 263.222656 285.269531 263.265625 285.257812 C 263.332031 285.257812 263.394531 285.257812 263.457031 285.242188 Z M 135.03125 211.910156 L 135.03125 230.839844 L 122.855469 243 L 115.726562 241.089844 L 128.390625 228.4375 C 128.820312 228.007812 129.054688 227.4375 129.054688 226.828125 L 129.054688 208.480469 L 135.019531 211.910156 Z M 124.511719 205.859375 L 124.511719 225.882812 L 110.652344 239.726562 L 103.523438 237.816406 L 117.875 223.480469 C 118.304688 223.050781 118.539062 222.480469 118.539062 221.871094 L 118.539062 202.433594 L 124.503906 205.859375 Z M 127.9375 244.363281 L 138.917969 233.394531 C 139.347656 232.964844 139.582031 232.394531 139.582031 231.785156 L 139.582031 214.527344 L 246.941406 276.273438 L 127.925781 244.363281 Z M 63.648438 138.960938 L 78.8125 102.050781 L 242.53125 265.59375 L 91.46875 158.664062 L 91.449219 158.664062 L 63.640625 138.960938 Z M 87.960938 179.59375 L 91.566406 164.292969 L 222.410156 256.90625 L 87.972656 179.582031 Z M 107.367188 218.523438 C 107.792969 218.09375 108.03125 217.523438 108.03125 216.914062 L 108.03125 196.382812 L 113.996094 199.8125 L 113.996094 220.933594 L 98.453125 236.460938 L 91.324219 234.550781 L 107.359375 218.523438 Z M 63.640625 231.828125 L 219.949219 273.742188 L 57.277344 247.65625 Z M 5.417969 280.703125 L 19.578125 246.21875 L 53.6875 251.6875 L 234.609375 280.691406 L 5.417969 280.691406 Z M 5.417969 280.703125 " fill-opacity="1" fill-rule="nonzero"/></g></svg>