<?xml version="1.0" encoding="UTF-8" standalone="no" ?>
<!DOCTYPE svg PUBLIC "-//W3C//DTD SVG 1.1//EN" "http://www.w3.org/Graphics/SVG/1.1/DTD/svg11.dtd">
<svg xmlns="http://www.w3.org/2000/svg" xmlns:xlink="http://www.w3.org/1999/xlink" version="1.1" width="1080" height="1080" viewBox="0 0 1080 1080" xml:space="preserve">
<desc>Created with Fabric.js 5.2.4</desc>
<defs>
</defs>
<g transform="matrix(1 0 0 1 540 540)" id="22ec6444-0640-41f1-932c-3fc7bfbc48a0"  >
<rect style="stroke: none; stroke-width: 1; stroke-dasharray: none; stroke-linecap: butt; stroke-dashoffset: 0; stroke-linejoin: miter; stroke-miterlimit: 4; fill: rgb(255,255,255); fill-rule: nonzero; opacity: 1; visibility: hidden;" vector-effect="non-scaling-stroke"  x="-540" y="-540" rx="0" ry="0" width="1080" height="1080" />
</g>
<g transform="matrix(1 0 0 1 540 540)" id="d5f1308f-f8fc-4702-906b-a5b43279d789"  >
</g>
<g transform="matrix(1 0 0 1 540 540)"  >
<g style="" vector-effect="non-scaling-stroke"   >
		<g transform="matrix(1.33 0 0 1.33 0 0.52)"  >
<path style="stroke: none; stroke-width: 1; stroke-dasharray: none; stroke-linecap: butt; stroke-dashoffset: 0; stroke-linejoin: miter; stroke-miterlimit: 4; fill: rgb(204,163,73); fill-rule: nonzero; opacity: 1;" vector-effect="non-scaling-stroke"  transform=" translate(-297.32, -239.57)" d="M 44.542969 238.875 L 550.089844 238.875 L 550.089844 240.269531 L 44.542969 240.269531 Z M 44.542969 238.875" stroke-linecap="round" />
</g>
		<g transform="matrix(1.33 0 0 1.33 0 15.81)"  >
<path style="stroke: none; stroke-width: 1; stroke-dasharray: none; stroke-linecap: butt; stroke-dashoffset: 0; stroke-linejoin: miter; stroke-miterlimit: 4; fill: rgb(204,163,73); fill-rule: nonzero; opacity: 1;" vector-effect="non-scaling-stroke"  transform=" translate(-297.32, -251.05)" d="M 159.410156 250.355469 L 435.226562 250.355469 L 435.226562 251.75 L 159.410156 251.75 Z M 159.410156 250.355469" stroke-linecap="round" />
</g>
		<g transform="matrix(1.33 0 0 1.33 0 -15.81)" clip-path="url(#CLIPPATH_3)"  >
<clipPath id="CLIPPATH_3" >
	<path transform="matrix(1 0 0 1 0.18 0.48) translate(-297.5, -227.79)" id="e4418c39c2" d="M 159 226.585938 L 436 226.585938 L 436 229 L 159 229 Z M 159 226.585938" stroke-linecap="round" />
</clipPath>
<path style="stroke: none; stroke-width: 1; stroke-dasharray: none; stroke-linecap: butt; stroke-dashoffset: 0; stroke-linejoin: miter; stroke-miterlimit: 4; fill: rgb(204,163,73); fill-rule: nonzero; opacity: 1;" vector-effect="non-scaling-stroke"  transform=" translate(-297.32, -227.31)" d="M 159.410156 226.613281 L 435.226562 226.613281 L 435.226562 228.007812 L 159.410156 228.007812 Z M 159.410156 226.613281" stroke-linecap="round" />
</g>
		<g transform="matrix(1.33 0 0 1.33 -345.03 0.52)"  >
<path style="stroke: none; stroke-width: 1; stroke-dasharray: none; stroke-linecap: butt; stroke-dashoffset: 0; stroke-linejoin: miter; stroke-miterlimit: 4; fill: rgb(204,163,73); fill-rule: nonzero; opacity: 1;" vector-effect="non-scaling-stroke"  transform=" translate(-38.22, -239.57)" d="M 38.21875 246.554688 C 37.757812 246.554688 37.304688 246.511719 36.855469 246.421875 C 36.40625 246.332031 35.96875 246.199219 35.542969 246.023438 C 35.121094 245.847656 34.71875 245.632812 34.335938 245.378906 C 33.957031 245.125 33.601562 244.832031 33.277344 244.507812 C 32.957031 244.183594 32.664062 243.832031 32.410156 243.453125 C 32.15625 243.070312 31.941406 242.667969 31.765625 242.246094 C 31.589844 241.820312 31.457031 241.382812 31.367188 240.933594 C 31.277344 240.484375 31.234375 240.03125 31.234375 239.570312 C 31.234375 239.113281 31.277344 238.660156 31.367188 238.210938 C 31.457031 237.761719 31.589844 237.324219 31.765625 236.898438 C 31.941406 236.476562 32.15625 236.074219 32.410156 235.691406 C 32.664062 235.3125 32.957031 234.957031 33.277344 234.632812 C 33.601562 234.308594 33.957031 234.019531 34.335938 233.765625 C 34.71875 233.511719 35.121094 233.296875 35.542969 233.121094 C 35.96875 232.945312 36.40625 232.8125 36.855469 232.722656 C 37.304688 232.632812 37.757812 232.589844 38.21875 232.589844 C 38.675781 232.589844 39.128906 232.632812 39.578125 232.722656 C 40.027344 232.8125 40.464844 232.945312 40.890625 233.121094 C 41.3125 233.296875 41.714844 233.511719 42.097656 233.765625 C 42.476562 234.019531 42.832031 234.308594 43.15625 234.632812 C 43.480469 234.957031 43.769531 235.3125 44.023438 235.691406 C 44.277344 236.074219 44.492188 236.476562 44.667969 236.898438 C 44.84375 237.324219 44.976562 237.761719 45.066406 238.210938 C 45.15625 238.660156 45.199219 239.113281 45.199219 239.570312 C 45.199219 240.03125 45.15625 240.484375 45.066406 240.933594 C 44.976562 241.382812 44.84375 241.820312 44.667969 242.246094 C 44.492188 242.667969 44.277344 243.070312 44.023438 243.453125 C 43.769531 243.832031 43.480469 244.183594 43.15625 244.507812 C 42.832031 244.832031 42.476562 245.125 42.097656 245.378906 C 41.714844 245.632812 41.3125 245.847656 40.890625 246.023438 C 40.464844 246.199219 40.027344 246.332031 39.578125 246.421875 C 39.128906 246.511719 38.675781 246.554688 38.21875 246.554688 Z M 38.21875 233.902344 C 37.851562 233.902344 37.488281 233.9375 37.128906 234.007812 C 36.765625 234.082031 36.417969 234.1875 36.078125 234.328125 C 35.738281 234.46875 35.417969 234.640625 35.113281 234.84375 C 34.808594 235.046875 34.527344 235.277344 34.265625 235.539062 C 34.007812 235.796875 33.777344 236.078125 33.570312 236.386719 C 33.367188 236.691406 33.195312 237.011719 33.054688 237.351562 C 32.914062 237.691406 32.808594 238.039062 32.738281 238.398438 C 32.667969 238.757812 32.628906 239.121094 32.628906 239.488281 C 32.628906 239.855469 32.667969 240.21875 32.738281 240.578125 C 32.808594 240.9375 32.914062 241.289062 33.054688 241.625 C 33.195312 241.964844 33.367188 242.285156 33.570312 242.59375 C 33.777344 242.898438 34.007812 243.179688 34.265625 243.4375 C 34.527344 243.699219 34.808594 243.929688 35.113281 244.132812 C 35.417969 244.335938 35.738281 244.507812 36.078125 244.648438 C 36.417969 244.789062 36.765625 244.894531 37.128906 244.96875 C 37.488281 245.039062 37.851562 245.074219 38.21875 245.074219 C 38.582031 245.074219 38.945312 245.039062 39.304688 244.96875 C 39.667969 244.894531 40.015625 244.789062 40.355469 244.648438 C 40.695312 244.507812 41.015625 244.335938 41.320312 244.132812 C 41.625 243.929688 41.90625 243.699219 42.167969 243.4375 C 42.425781 243.179688 42.65625 242.898438 42.863281 242.59375 C 43.066406 242.285156 43.238281 241.964844 43.378906 241.625 C 43.519531 241.289062 43.625 240.9375 43.695312 240.578125 C 43.765625 240.21875 43.804688 239.855469 43.804688 239.488281 C 43.796875 239.125 43.757812 238.765625 43.679688 238.410156 C 43.605469 238.054688 43.496094 237.710938 43.355469 237.375 C 43.210938 237.042969 43.039062 236.726562 42.832031 236.425781 C 42.628906 236.125 42.394531 235.847656 42.136719 235.59375 C 41.878906 235.335938 41.597656 235.109375 41.292969 234.910156 C 40.992188 234.710938 40.671875 234.539062 40.335938 234.402344 C 40 234.265625 39.652344 234.160156 39.296875 234.089844 C 38.941406 234.019531 38.582031 233.984375 38.21875 233.984375 Z M 38.21875 233.902344" stroke-linecap="round" />
</g>
		<g transform="matrix(1.33 0 0 1.33 345.03 0.52)"  >
<path style="stroke: none; stroke-width: 1; stroke-dasharray: none; stroke-linecap: butt; stroke-dashoffset: 0; stroke-linejoin: miter; stroke-miterlimit: 4; fill: rgb(204,163,73); fill-rule: nonzero; opacity: 1;" vector-effect="non-scaling-stroke"  transform=" translate(-556.42, -239.57)" d="M 556.417969 246.554688 C 555.960938 246.554688 555.503906 246.511719 555.054688 246.421875 C 554.605469 246.332031 554.167969 246.199219 553.746094 246.023438 C 553.320312 245.847656 552.917969 245.632812 552.539062 245.378906 C 552.15625 245.125 551.804688 244.832031 551.480469 244.507812 C 551.15625 244.183594 550.867188 243.832031 550.613281 243.453125 C 550.355469 243.070312 550.140625 242.667969 549.964844 242.246094 C 549.792969 241.820312 549.660156 241.382812 549.570312 240.933594 C 549.480469 240.484375 549.433594 240.03125 549.433594 239.570312 C 549.433594 239.113281 549.480469 238.660156 549.570312 238.210938 C 549.660156 237.761719 549.792969 237.324219 549.964844 236.898438 C 550.140625 236.476562 550.355469 236.074219 550.613281 235.691406 C 550.867188 235.3125 551.15625 234.957031 551.480469 234.632812 C 551.804688 234.308594 552.15625 234.019531 552.539062 233.765625 C 552.917969 233.511719 553.320312 233.296875 553.746094 233.121094 C 554.167969 232.945312 554.605469 232.8125 555.054688 232.722656 C 555.503906 232.632812 555.960938 232.589844 556.417969 232.589844 C 556.875 232.589844 557.332031 232.632812 557.78125 232.722656 C 558.230469 232.8125 558.667969 232.945312 559.089844 233.121094 C 559.515625 233.296875 559.917969 233.511719 560.296875 233.765625 C 560.679688 234.019531 561.03125 234.308594 561.355469 234.632812 C 561.679688 234.957031 561.96875 235.3125 562.222656 235.691406 C 562.480469 236.074219 562.695312 236.476562 562.867188 236.898438 C 563.042969 237.324219 563.175781 237.761719 563.265625 238.210938 C 563.355469 238.660156 563.402344 239.113281 563.402344 239.570312 C 563.402344 240.03125 563.355469 240.484375 563.265625 240.933594 C 563.175781 241.382812 563.042969 241.820312 562.867188 242.246094 C 562.695312 242.667969 562.480469 243.070312 562.222656 243.453125 C 561.96875 243.832031 561.679688 244.183594 561.355469 244.507812 C 561.03125 244.832031 560.679688 245.125 560.296875 245.378906 C 559.917969 245.632812 559.515625 245.847656 559.089844 246.023438 C 558.667969 246.199219 558.230469 246.332031 557.78125 246.421875 C 557.332031 246.511719 556.875 246.554688 556.417969 246.554688 Z M 556.417969 233.902344 C 556.050781 233.902344 555.6875 233.9375 555.328125 234.007812 C 554.96875 234.082031 554.617188 234.1875 554.28125 234.328125 C 553.941406 234.46875 553.621094 234.640625 553.3125 234.84375 C 553.007812 235.046875 552.726562 235.277344 552.46875 235.539062 C 552.207031 235.796875 551.976562 236.078125 551.773438 236.386719 C 551.570312 236.691406 551.398438 237.011719 551.257812 237.351562 C 551.117188 237.691406 551.011719 238.039062 550.9375 238.398438 C 550.867188 238.757812 550.832031 239.121094 550.832031 239.488281 C 550.832031 239.855469 550.867188 240.21875 550.9375 240.578125 C 551.011719 240.9375 551.117188 241.289062 551.257812 241.625 C 551.398438 241.964844 551.570312 242.285156 551.773438 242.59375 C 551.976562 242.898438 552.207031 243.179688 552.46875 243.4375 C 552.726562 243.699219 553.007812 243.929688 553.3125 244.132812 C 553.621094 244.335938 553.941406 244.507812 554.28125 244.648438 C 554.617188 244.789062 554.96875 244.894531 555.328125 244.96875 C 555.6875 245.039062 556.050781 245.074219 556.417969 245.074219 C 556.785156 245.074219 557.148438 245.039062 557.507812 244.96875 C 557.867188 244.894531 558.21875 244.789062 558.554688 244.648438 C 558.894531 244.507812 559.214844 244.335938 559.519531 244.132812 C 559.828125 243.929688 560.109375 243.699219 560.367188 243.4375 C 560.628906 243.179688 560.859375 242.898438 561.0625 242.59375 C 561.265625 242.285156 561.4375 241.964844 561.578125 241.625 C 561.71875 241.289062 561.824219 240.9375 561.898438 240.578125 C 561.96875 240.21875 562.003906 239.855469 562.003906 239.488281 C 562 239.125 561.957031 238.765625 561.882812 238.410156 C 561.808594 238.054688 561.699219 237.710938 561.554688 237.375 C 561.414062 237.042969 561.238281 236.726562 561.035156 236.425781 C 560.828125 236.125 560.597656 235.847656 560.339844 235.59375 C 560.078125 235.335938 559.800781 235.109375 559.496094 234.910156 C 559.191406 234.710938 558.871094 234.539062 558.535156 234.402344 C 558.199219 234.265625 557.855469 234.160156 557.496094 234.089844 C 557.140625 234.019531 556.78125 233.984375 556.417969 233.984375 Z M 556.417969 233.902344" stroke-linecap="round" />
</g>
</g>
</g>
</svg>